<svg width="105" height="105" viewBox="0 0 105 105" fill="none" xmlns="http://www.w3.org/2000/svg">
<g clip-path="url(#clip0)">
<path d="M45.4857 28.6139C44.8865 27.6133 43.7727 27.0389 42.6097 27.1273L17.6119 29.0583C15.0811 29.254 12.8267 30.5804 11.4264 32.698L0.935698 48.5652C-0.125984 50.1712 -0.294967 52.1807 0.483914 53.9411C1.26259 55.7015 2.86321 56.928 4.7653 57.2227L25.0351 60.3622C25.1928 60.3866 25.3503 60.3987 25.5065 60.3987C26.5448 60.3985 27.5272 59.8721 28.0979 58.9792L45.4385 31.8511C46.0667 30.8681 46.0847 29.6147 45.4857 28.6139V28.6139Z" fill="#E45A6E"/>
<path d="M76.3859 59.5142C75.3851 58.915 74.1315 58.9333 73.1488 59.5614L46.0208 76.9021C44.9936 77.5587 44.4512 78.7601 44.6376 79.9649L47.7769 100.235C48.0716 102.137 49.2984 103.737 51.059 104.516C51.7911 104.84 52.5663 105 53.3378 105C54.4208 105 55.4968 104.684 56.4346 104.064L72.302 93.5736C74.4196 92.1737 75.7463 89.9191 75.9415 87.388L77.8725 62.3904C77.9625 61.2274 77.3867 60.1137 76.3859 59.5142V59.5142Z" fill="#D82E44"/>
<path d="M39.5532 84.5485C40.7775 85.7728 42.5172 86.3456 44.2248 86.06C69.2671 81.8727 89.0835 61.1386 96.6276 46.553C105.005 30.3573 105.315 13.2424 104.877 5.21571C104.727 2.46522 102.535 0.272747 99.7842 0.122631C91.7575 -0.315002 74.6428 -0.00472123 58.4469 8.37245C43.8614 15.9166 23.1274 35.7329 18.9401 60.7752C18.6547 62.4829 19.2272 64.2226 20.4515 65.4469L39.5532 84.5485Z" fill="#F1F1FB"/>
<path d="M103.306 1.69414L30.0023 74.9977L39.5531 84.5486C40.7774 85.7729 42.5171 86.3454 44.2248 86.06C69.2671 81.8727 89.0834 61.1386 96.6276 46.5532C105.005 30.3575 105.315 13.2426 104.877 5.21592C104.802 3.84067 104.216 2.60488 103.306 1.69414V1.69414Z" fill="#D7D6FB"/>
<path d="M71.9267 48.4469C67.9874 48.4471 64.0497 46.948 61.0509 43.9491C58.1458 41.0442 56.5458 37.1816 56.5458 33.0733C56.5458 28.965 58.1458 25.1024 61.0509 22.1975C67.0475 16.2006 76.8053 16.2004 82.8023 22.1975C85.7074 25.1024 87.3073 28.965 87.3073 33.0733C87.3073 37.1816 85.7074 41.0442 82.8023 43.9491C79.8043 46.9473 75.8648 48.4465 71.9267 48.4469V48.4469ZM63.2259 24.3727H63.228H63.2259Z" fill="#466288"/>
<path d="M18.94 60.7753C18.6545 62.4829 19.2271 64.2226 20.4514 65.4469L39.5531 84.5486C40.7774 85.7729 42.517 86.3454 44.2247 86.06C49.6738 85.1488 54.875 83.4536 59.7566 81.2095L23.7905 45.2436C21.5463 50.125 19.8512 55.3264 18.94 60.7753V60.7753Z" fill="#466288"/>
<path d="M3.13857 86.5297C3.92566 86.5297 4.71316 86.2293 5.31363 85.6286L15.3569 75.5853C16.5583 74.3842 16.5583 72.4363 15.3569 71.235C14.1558 70.0336 12.2081 70.0336 11.0066 71.235L0.963511 81.2783C-0.237837 82.4794 -0.237837 84.4273 0.963511 85.6286C1.56418 86.2295 2.35127 86.5297 3.13857 86.5297V86.5297Z" fill="#FDB43A"/>
<path d="M24.561 80.4392C23.3598 79.2381 21.412 79.2381 20.2107 80.4392L0.901743 99.7481C-0.299604 100.949 -0.299604 102.897 0.901743 104.098C1.50242 104.699 2.28971 104.999 3.07701 104.999C3.8643 104.999 4.6516 104.699 5.25207 104.098L24.561 84.7893C25.7623 83.5882 25.7623 81.6404 24.561 80.4392V80.4392Z" fill="#FDB43A"/>
<path d="M33.765 89.6433C32.5639 88.4421 30.616 88.4421 29.4147 89.6433L19.3716 99.6863C18.1702 100.887 18.1702 102.835 19.3716 104.037C19.9723 104.637 20.7596 104.938 21.5466 104.938C22.3337 104.938 23.1212 104.637 23.7217 104.037L33.765 93.9934C34.9663 92.7922 34.9663 90.8444 33.765 89.6433V89.6433Z" fill="#F57A21"/>
<path d="M0.901733 104.098C1.50241 104.699 2.2897 104.999 3.077 104.999C3.86429 104.999 4.65159 104.699 5.25206 104.098L24.561 84.7893C25.7623 83.5882 25.7623 81.6404 24.561 80.439L0.901733 104.098Z" fill="#F57A21"/>
<path d="M30.0023 74.9977L39.5531 84.5486C40.7774 85.7729 42.5171 86.3454 44.2248 86.06C49.6739 85.1488 54.875 83.4536 59.7567 81.2095L41.7737 63.2265L30.0023 74.9977Z" fill="#354A67"/>
<path d="M61.0509 43.9493C64.0498 46.9482 67.9875 48.4475 71.9268 48.4471C75.8649 48.4467 79.8045 46.9473 82.8025 43.9493C85.7077 41.0442 87.3075 37.1817 87.3075 33.0734C87.3075 28.9651 85.7077 25.1024 82.8025 22.1975L61.0509 43.9493Z" fill="#354A67"/>
<path d="M71.9266 23.8494C69.5635 23.8494 67.2002 24.7489 65.4013 26.548C63.6583 28.291 62.6981 30.6083 62.6981 33.0734C62.6981 35.5384 63.6583 37.8558 65.4013 39.5988C68.9994 43.1969 74.8543 43.1971 78.4524 39.5988C80.1954 37.8556 81.1554 35.5382 81.1554 33.0732C81.1554 30.6081 80.1954 28.2908 78.4524 26.5478C76.6533 24.7489 74.2902 23.8494 71.9266 23.8494V23.8494Z" fill="#4BBEFD"/>
<path d="M78.4522 26.548L65.4012 39.5989C68.9993 43.197 74.8543 43.1972 78.4522 39.5989C80.1952 37.8558 81.1551 35.5384 81.1551 33.0734C81.1551 30.6083 80.1954 28.2909 78.4522 26.548V26.548Z" fill="#0590FB"/>
</g>
<defs>
<clipPath id="clip0">
<rect width="105" height="105" fill="white"/>
</clipPath>
</defs>
</svg>
