<svg width="901" height="69" viewBox="0 0 901 69" fill="none" xmlns="http://www.w3.org/2000/svg">
<circle cx="30.5" cy="48.5" r="10.25" fill="#00ADEF"/>
<circle cx="30.5" cy="48.5" r="10.25" stroke="#00ADEF" stroke-width="1.5"/>
<circle cx="30.5" cy="48.5" r="10.25" stroke="#00ADEF" stroke-width="1.5"/>
<path d="M22 48.25H872" stroke="#00ADEF" stroke-width="1.5"/>
<circle cx="672.5" cy="48.5" r="10.25" fill="black" stroke="#00ADEF" stroke-width="1.5"/>
<circle cx="241.5" cy="48.5" r="10.25" fill="black"/>
<circle cx="241.5" cy="48.5" r="10.25" stroke="#00ADEF" stroke-width="1.5"/>
<circle cx="241.5" cy="48.5" r="10.25" stroke="#00ADEF" stroke-width="1.5"/>
<circle cx="450.5" cy="47.5" r="20.25" fill="black"/>
<circle cx="450.5" cy="47.5" r="20.25" stroke="#00ADEF" stroke-width="1.5"/>
<circle cx="450.5" cy="47.5" r="20.25" stroke="#00ADEF" stroke-width="1.5"/>
<circle cx="871.5" cy="48.5" r="10.25" fill="black"/>
<circle cx="871.5" cy="48.5" r="10.25" stroke="#00ADEF" stroke-width="1.5"/>
<circle cx="871.5" cy="48.5" r="10.25" stroke="#00ADEF" stroke-width="1.5"/>
<path d="M5.11738 32.096C4.43471 32.096 3.82671 32.016 3.29338 31.856C2.76004 31.696 2.31204 31.4027 1.94938 30.976C1.58671 30.5493 1.30938 29.9413 1.11738 29.152C0.925375 28.352 0.829375 27.3173 0.829375 26.048C0.829375 24.8213 0.925375 23.8187 1.11738 23.04C1.32004 22.2613 1.60804 21.6533 1.98138 21.216C2.35471 20.7787 2.80804 20.4747 3.34138 20.304C3.87471 20.1333 4.47738 20.048 5.14938 20.048C5.93871 20.048 6.65338 20.112 7.29338 20.24C7.94404 20.3573 8.46138 20.48 8.84538 20.608V22.448C8.55738 22.384 8.12004 22.3253 7.53338 22.272C6.95738 22.208 6.32804 22.176 5.64538 22.176C5.19738 22.176 4.81338 22.2293 4.49338 22.336C4.18404 22.432 3.93338 22.6187 3.74138 22.896C3.56004 23.1627 3.42138 23.552 3.32538 24.064C3.24004 24.576 3.19738 25.2427 3.19738 26.064C3.19738 27.1307 3.26671 27.9467 3.40538 28.512C3.54404 29.0667 3.78938 29.4507 4.14138 29.664C4.49338 29.8667 4.99471 29.968 5.64538 29.968C6.44538 29.968 7.10138 29.952 7.61338 29.92C8.12538 29.888 8.53604 29.8507 8.84538 29.808V31.632C8.40804 31.7813 7.88004 31.8987 7.26138 31.984C6.65338 32.0587 5.93871 32.096 5.11738 32.096ZM10.5084 32V20.16H15.4044C16.023 20.16 16.5884 20.2667 17.1004 20.48C17.6124 20.6827 18.0177 21.0613 18.3164 21.616C18.6257 22.16 18.7804 22.9387 18.7804 23.952C18.7804 24.688 18.6897 25.2747 18.5084 25.712C18.327 26.1387 18.0924 26.4693 17.8044 26.704C17.5164 26.9387 17.2177 27.12 16.9084 27.248L19.1164 32H16.7004L14.7964 27.616C14.5297 27.616 14.215 27.616 13.8524 27.616C13.4897 27.6053 13.1644 27.5947 12.8764 27.584V32H10.5084ZM12.8764 25.712H14.9884C15.415 25.712 15.7564 25.5947 16.0124 25.36C16.279 25.1147 16.4124 24.6453 16.4124 23.952C16.4124 23.28 16.279 22.8373 16.0124 22.624C15.7457 22.4 15.4044 22.288 14.9884 22.288H12.8764V25.712ZM23.4196 32.08C23.1636 32.08 22.8703 32.0533 22.5396 32C22.209 31.9573 21.889 31.8507 21.5796 31.68C21.281 31.5093 21.0303 31.2533 20.8276 30.912C20.6356 30.56 20.5396 30.08 20.5396 29.472V22.864C20.5396 22.16 20.6783 21.6107 20.9556 21.216C21.233 20.8213 21.5796 20.5493 21.9956 20.4C22.4116 20.24 22.8276 20.16 23.2436 20.16C24.4383 20.16 25.4356 20.1813 26.2356 20.224C27.0356 20.2667 27.745 20.3147 28.3636 20.368V22.352H23.9476C23.617 22.352 23.361 22.432 23.1796 22.592C22.9983 22.752 22.9076 22.9973 22.9076 23.328V25.04L27.5956 25.168V27.04L22.9076 27.168V28.8C22.9076 29.216 23.0036 29.4987 23.1956 29.648C23.3983 29.7867 23.633 29.856 23.8996 29.856H28.3636V31.84C27.649 31.9147 26.8436 31.9733 25.9476 32.016C25.0516 32.0587 24.209 32.08 23.4196 32.08ZM29.3345 32L33.0465 20.16H36.0385L39.7505 32H37.2865L36.5345 29.52H32.5025L31.7665 32H29.3345ZM33.0625 27.392H35.9745L34.5185 22.192L33.0625 27.392ZM42.7228 32V22.288H39.4748V20.16H48.3548V22.288H45.0908V32H42.7228ZM52.3571 32.08C52.1011 32.08 51.8078 32.0533 51.4771 32C51.1465 31.9573 50.8265 31.8507 50.5171 31.68C50.2185 31.5093 49.9678 31.2533 49.7651 30.912C49.5731 30.56 49.4771 30.08 49.4771 29.472V22.864C49.4771 22.16 49.6158 21.6107 49.8931 21.216C50.1705 20.8213 50.5171 20.5493 50.9331 20.4C51.3491 20.24 51.7651 20.16 52.1811 20.16C53.3758 20.16 54.3731 20.1813 55.1731 20.224C55.9731 20.2667 56.6825 20.3147 57.3011 20.368V22.352H52.8851C52.5545 22.352 52.2985 22.432 52.1171 22.592C51.9358 22.752 51.8451 22.9973 51.8451 23.328V25.04L56.5331 25.168V27.04L51.8451 27.168V28.8C51.8451 29.216 51.9411 29.4987 52.1331 29.648C52.3358 29.7867 52.5705 29.856 52.8371 29.856H57.3011V31.84C56.5865 31.9147 55.7811 31.9733 54.8851 32.016C53.9891 32.0587 53.1465 32.08 52.3571 32.08Z" fill="#00ADEF"/>
<path d="M216.343 32L212.631 20.16H215.079L217.847 29.44L220.615 20.16H223.047L219.335 32H216.343ZM228.756 32.096C227.946 32.096 227.236 32.0213 226.628 31.872C226.02 31.712 225.514 31.424 225.108 31.008C224.703 30.5813 224.394 29.9733 224.18 29.184C223.978 28.3947 223.876 27.3653 223.876 26.096C223.876 24.8267 223.978 23.7973 224.18 23.008C224.394 22.208 224.703 21.5947 225.108 21.168C225.524 20.7413 226.031 20.448 226.628 20.288C227.236 20.128 227.946 20.048 228.756 20.048C229.567 20.048 230.276 20.128 230.884 20.288C231.492 20.448 231.999 20.7413 232.404 21.168C232.81 21.5947 233.114 22.208 233.316 23.008C233.519 23.7973 233.62 24.8267 233.62 26.096C233.62 27.3653 233.519 28.3947 233.316 29.184C233.114 29.9733 232.81 30.5813 232.404 31.008C231.999 31.424 231.487 31.712 230.868 31.872C230.26 32.0213 229.556 32.096 228.756 32.096ZM228.756 29.968C229.226 29.968 229.62 29.92 229.94 29.824C230.271 29.7173 230.527 29.5253 230.708 29.248C230.9 28.9707 231.039 28.5813 231.124 28.08C231.21 27.568 231.252 26.9067 231.252 26.096C231.252 25.2533 231.21 24.576 231.124 24.064C231.039 23.5413 230.9 23.1467 230.708 22.88C230.516 22.6027 230.26 22.416 229.94 22.32C229.62 22.224 229.226 22.176 228.756 22.176C228.287 22.176 227.892 22.224 227.572 22.32C227.263 22.416 227.007 22.6027 226.804 22.88C226.612 23.1467 226.468 23.5413 226.372 24.064C226.287 24.576 226.244 25.2533 226.244 26.096C226.244 26.9067 226.282 27.568 226.356 28.08C226.442 28.5813 226.58 28.9707 226.772 29.248C226.964 29.5253 227.22 29.7173 227.54 29.824C227.86 29.92 228.266 29.968 228.756 29.968ZM237.77 32V22.288H234.522V20.16H243.402V22.288H240.138V32H237.77ZM244.68 32V20.16H247.048V32H244.68ZM249.182 32V20.16H251.086L256.046 27.968V20.16H258.414V32H256.51L251.566 24.192V32H249.182ZM263.728 32.08C262.736 32.08 261.973 31.8347 261.44 31.344C260.917 30.8427 260.554 30.144 260.352 29.248C260.16 28.3413 260.064 27.2853 260.064 26.08C260.064 25.1307 260.122 24.2827 260.24 23.536C260.368 22.7893 260.586 22.16 260.896 21.648C261.216 21.1253 261.658 20.7307 262.224 20.464C262.8 20.1867 263.536 20.048 264.432 20.048C265.253 20.048 265.973 20.096 266.592 20.192C267.21 20.288 267.824 20.416 268.432 20.576V22.4C268.09 22.3573 267.594 22.3093 266.944 22.256C266.293 22.2027 265.6 22.176 264.864 22.176C264.192 22.176 263.68 22.2987 263.328 22.544C262.976 22.7893 262.736 23.1947 262.608 23.76C262.49 24.3253 262.432 25.104 262.432 26.096C262.432 27.12 262.496 27.9093 262.624 28.464C262.752 29.008 262.965 29.3867 263.264 29.6C263.562 29.8027 263.968 29.904 264.48 29.904C264.928 29.904 265.349 29.8667 265.744 29.792C266.138 29.7173 266.458 29.6427 266.704 29.568V27.264H264.576V25.392C264.906 25.3493 265.328 25.312 265.84 25.28C266.362 25.248 266.853 25.232 267.312 25.232C267.653 25.232 267.957 25.2373 268.224 25.248C268.501 25.2587 268.752 25.2693 268.976 25.28V32H267.2L266.88 31.2C266.57 31.3813 266.133 31.5733 265.568 31.776C265.002 31.9787 264.389 32.08 263.728 32.08Z" fill="#00ADEF"/>
<path d="M425.446 16V4.16H430.342C430.961 4.16 431.526 4.26667 432.038 4.48C432.55 4.68267 432.955 5.06133 433.254 5.616C433.563 6.16 433.718 6.93867 433.718 7.952C433.718 8.688 433.627 9.27467 433.446 9.712C433.265 10.1387 433.03 10.4693 432.742 10.704C432.454 10.9387 432.155 11.12 431.846 11.248L434.054 16H431.638L429.734 11.616C429.467 11.616 429.153 11.616 428.79 11.616C428.427 11.6053 428.102 11.5947 427.814 11.584V16H425.446ZM427.814 9.712H429.926C430.353 9.712 430.694 9.59467 430.95 9.36C431.217 9.11467 431.35 8.64533 431.35 7.952C431.35 7.28 431.217 6.83733 430.95 6.624C430.683 6.4 430.342 6.288 429.926 6.288H427.814V9.712ZM438.357 16.08C438.101 16.08 437.808 16.0533 437.477 16C437.146 15.9573 436.826 15.8507 436.517 15.68C436.218 15.5093 435.968 15.2533 435.765 14.912C435.573 14.56 435.477 14.08 435.477 13.472V6.864C435.477 6.16 435.616 5.61067 435.893 5.216C436.17 4.82133 436.517 4.54933 436.933 4.4C437.349 4.24 437.765 4.16 438.181 4.16C439.376 4.16 440.373 4.18133 441.173 4.224C441.973 4.26667 442.682 4.31467 443.301 4.368V6.352H438.885C438.554 6.352 438.298 6.432 438.117 6.592C437.936 6.752 437.845 6.99733 437.845 7.328V9.04L442.533 9.168V11.04L437.845 11.168V12.8C437.845 13.216 437.941 13.4987 438.133 13.648C438.336 13.7867 438.57 13.856 438.837 13.856H443.301V15.84C442.586 15.9147 441.781 15.9733 440.885 16.016C439.989 16.0587 439.146 16.08 438.357 16.08ZM444.272 16L447.984 4.16H450.976L454.688 16H452.224L451.472 13.52H447.44L446.704 16H444.272ZM448 11.392H450.912L449.456 6.192L448 11.392ZM455.977 16V4.16H460.985C462.052 4.16 462.884 4.41067 463.481 4.912C464.089 5.41333 464.51 6.10667 464.745 6.992C464.99 7.87733 465.113 8.90667 465.113 10.08C465.113 12.0747 464.772 13.5627 464.089 14.544C463.406 15.5147 462.372 16 460.985 16H455.977ZM458.345 13.872H460.745C461.481 13.872 461.998 13.552 462.297 12.912C462.596 12.272 462.745 11.328 462.745 10.08C462.745 9.056 462.67 8.272 462.521 7.728C462.372 7.17333 462.148 6.79467 461.849 6.592C461.561 6.38933 461.193 6.288 460.745 6.288H458.345V13.872ZM469.434 16V12.416L465.866 4.16H468.33L470.666 10L472.986 4.16H475.354L471.802 12.416V16H469.434ZM476.905 12.752L476.617 4.176H478.985L478.665 12.752H476.905ZM477.081 16.016C476.857 16.016 476.745 15.9093 476.745 15.696V14.064C476.745 13.84 476.857 13.728 477.081 13.728H478.457C478.681 13.728 478.793 13.84 478.793 14.064V15.696C478.793 15.824 478.761 15.9093 478.697 15.952C478.633 15.9947 478.553 16.016 478.457 16.016H477.081Z" fill="#00ADEF"/>
<path d="M616.977 32.096C616.294 32.096 615.686 32.016 615.153 31.856C614.619 31.696 614.171 31.4027 613.809 30.976C613.446 30.5493 613.169 29.9413 612.977 29.152C612.785 28.352 612.689 27.3173 612.689 26.048C612.689 24.8213 612.785 23.8187 612.977 23.04C613.179 22.2613 613.467 21.6533 613.841 21.216C614.214 20.7787 614.667 20.4747 615.201 20.304C615.734 20.1333 616.337 20.048 617.009 20.048C617.798 20.048 618.513 20.112 619.153 20.24C619.803 20.3573 620.321 20.48 620.705 20.608V22.448C620.417 22.384 619.979 22.3253 619.393 22.272C618.817 22.208 618.187 22.176 617.505 22.176C617.057 22.176 616.673 22.2293 616.353 22.336C616.043 22.432 615.793 22.6187 615.601 22.896C615.419 23.1627 615.281 23.552 615.185 24.064C615.099 24.576 615.057 25.2427 615.057 26.064C615.057 27.1307 615.126 27.9467 615.265 28.512C615.403 29.0667 615.649 29.4507 616.001 29.664C616.353 29.8667 616.854 29.968 617.505 29.968C618.305 29.968 618.961 29.952 619.473 29.92C619.985 29.888 620.395 29.8507 620.705 29.808V31.632C620.267 31.7813 619.739 31.8987 619.121 31.984C618.513 32.0587 617.798 32.096 616.977 32.096ZM621.616 32L625.328 20.16H628.32L632.032 32H629.568L628.816 29.52H624.784L624.048 32H621.616ZM625.344 27.392H628.256L626.8 22.192L625.344 27.392ZM636.121 32C635.193 32 634.494 31.7867 634.025 31.36C633.556 30.9333 633.321 30.2133 633.321 29.2V20.16H635.689V28.816C635.689 29.2107 635.785 29.4827 635.977 29.632C636.18 29.7813 636.436 29.856 636.745 29.856H640.489V32H636.121ZM644.683 32C643.755 32 643.057 31.7867 642.587 31.36C642.118 30.9333 641.883 30.2133 641.883 29.2V20.16H644.251V28.816C644.251 29.2107 644.347 29.4827 644.539 29.632C644.742 29.7813 644.998 29.856 645.307 29.856H649.051V32H644.683ZM654.571 32V22.864C654.571 22.16 654.71 21.6107 654.987 21.216C655.264 20.8213 655.611 20.5493 656.027 20.4C656.443 20.24 656.859 20.16 657.275 20.16C657.659 20.16 658.134 20.1653 658.699 20.176C659.275 20.1867 659.883 20.208 660.523 20.24C661.174 20.2613 661.798 20.304 662.395 20.368V22.352H657.931C657.6 22.352 657.35 22.4427 657.179 22.624C657.019 22.7947 656.939 23.0187 656.939 23.296V25.328L661.627 25.456V27.328L656.939 27.456V32H654.571ZM668.475 32.096C667.664 32.096 666.955 32.0213 666.347 31.872C665.739 31.712 665.232 31.424 664.827 31.008C664.422 30.5813 664.112 29.9733 663.899 29.184C663.696 28.3947 663.595 27.3653 663.595 26.096C663.595 24.8267 663.696 23.7973 663.899 23.008C664.112 22.208 664.422 21.5947 664.827 21.168C665.243 20.7413 665.75 20.448 666.347 20.288C666.955 20.128 667.664 20.048 668.475 20.048C669.286 20.048 669.995 20.128 670.603 20.288C671.211 20.448 671.718 20.7413 672.123 21.168C672.528 21.5947 672.832 22.208 673.035 23.008C673.238 23.7973 673.339 24.8267 673.339 26.096C673.339 27.3653 673.238 28.3947 673.035 29.184C672.832 29.9733 672.528 30.5813 672.123 31.008C671.718 31.424 671.206 31.712 670.587 31.872C669.979 32.0213 669.275 32.096 668.475 32.096ZM668.475 29.968C668.944 29.968 669.339 29.92 669.659 29.824C669.99 29.7173 670.246 29.5253 670.427 29.248C670.619 28.9707 670.758 28.5813 670.843 28.08C670.928 27.568 670.971 26.9067 670.971 26.096C670.971 25.2533 670.928 24.576 670.843 24.064C670.758 23.5413 670.619 23.1467 670.427 22.88C670.235 22.6027 669.979 22.416 669.659 22.32C669.339 22.224 668.944 22.176 668.475 22.176C668.006 22.176 667.611 22.224 667.291 22.32C666.982 22.416 666.726 22.6027 666.523 22.88C666.331 23.1467 666.187 23.5413 666.091 24.064C666.006 24.576 665.963 25.2533 665.963 26.096C665.963 26.9067 666 27.568 666.075 28.08C666.16 28.5813 666.299 28.9707 666.491 29.248C666.683 29.5253 666.939 29.7173 667.259 29.824C667.579 29.92 667.984 29.968 668.475 29.968ZM675.087 32V20.16H679.983C680.601 20.16 681.167 20.2667 681.679 20.48C682.191 20.6827 682.596 21.0613 682.895 21.616C683.204 22.16 683.359 22.9387 683.359 23.952C683.359 24.688 683.268 25.2747 683.087 25.712C682.905 26.1387 682.671 26.4693 682.383 26.704C682.095 26.9387 681.796 27.12 681.487 27.248L683.695 32H681.279L679.375 27.616C679.108 27.616 678.793 27.616 678.431 27.616C678.068 27.6053 677.743 27.5947 677.455 27.584V32H675.087ZM677.455 25.712H679.567C679.993 25.712 680.335 25.5947 680.591 25.36C680.857 25.1147 680.991 24.6453 680.991 23.952C680.991 23.28 680.857 22.8373 680.591 22.624C680.324 22.4 679.983 22.288 679.567 22.288H677.455V25.712ZM693.227 32.096C692.544 32.096 691.936 32.016 691.403 31.856C690.869 31.696 690.421 31.4027 690.059 30.976C689.696 30.5493 689.419 29.9413 689.227 29.152C689.035 28.352 688.939 27.3173 688.939 26.048C688.939 24.8213 689.035 23.8187 689.227 23.04C689.429 22.2613 689.717 21.6533 690.091 21.216C690.464 20.7787 690.917 20.4747 691.451 20.304C691.984 20.1333 692.587 20.048 693.259 20.048C694.048 20.048 694.763 20.112 695.403 20.24C696.053 20.3573 696.571 20.48 696.955 20.608V22.448C696.667 22.384 696.229 22.3253 695.643 22.272C695.067 22.208 694.437 22.176 693.755 22.176C693.307 22.176 692.923 22.2293 692.603 22.336C692.293 22.432 692.043 22.6187 691.851 22.896C691.669 23.1627 691.531 23.552 691.435 24.064C691.349 24.576 691.307 25.2427 691.307 26.064C691.307 27.1307 691.376 27.9467 691.515 28.512C691.653 29.0667 691.899 29.4507 692.251 29.664C692.603 29.8667 693.104 29.968 693.755 29.968C694.555 29.968 695.211 29.952 695.723 29.92C696.235 29.888 696.645 29.8507 696.955 29.808V31.632C696.517 31.7813 695.989 31.8987 695.371 31.984C694.763 32.0587 694.048 32.096 693.227 32.096ZM698.618 32V20.16H703.514C704.132 20.16 704.698 20.2667 705.21 20.48C705.722 20.6827 706.127 21.0613 706.426 21.616C706.735 22.16 706.89 22.9387 706.89 23.952C706.89 24.688 706.799 25.2747 706.618 25.712C706.436 26.1387 706.202 26.4693 705.914 26.704C705.626 26.9387 705.327 27.12 705.018 27.248L707.226 32H704.81L702.906 27.616C702.639 27.616 702.324 27.616 701.962 27.616C701.599 27.6053 701.274 27.5947 700.986 27.584V32H698.618ZM700.986 25.712H703.098C703.524 25.712 703.866 25.5947 704.122 25.36C704.388 25.1147 704.522 24.6453 704.522 23.952C704.522 23.28 704.388 22.8373 704.122 22.624C703.855 22.4 703.514 22.288 703.098 22.288H700.986V25.712ZM711.529 32.08C711.273 32.08 710.98 32.0533 710.649 32C710.318 31.9573 709.998 31.8507 709.689 31.68C709.39 31.5093 709.14 31.2533 708.937 30.912C708.745 30.56 708.649 30.08 708.649 29.472V22.864C708.649 22.16 708.788 21.6107 709.065 21.216C709.342 20.8213 709.689 20.5493 710.105 20.4C710.521 20.24 710.937 20.16 711.353 20.16C712.548 20.16 713.545 20.1813 714.345 20.224C715.145 20.2667 715.854 20.3147 716.473 20.368V22.352H712.057C711.726 22.352 711.47 22.432 711.289 22.592C711.108 22.752 711.017 22.9973 711.017 23.328V25.04L715.705 25.168V27.04L711.017 27.168V28.8C711.017 29.216 711.113 29.4987 711.305 29.648C711.508 29.7867 711.742 29.856 712.009 29.856H716.473V31.84C715.758 31.9147 714.953 31.9733 714.057 32.016C713.161 32.0587 712.318 32.08 711.529 32.08ZM720.276 32L717.444 20.16H719.892L721.796 28.512L724.02 20.16H726.196L728.404 28.512L730.308 20.16H732.756L729.924 32H727.508L725.108 23.648L722.692 32H720.276Z" fill="#00ADEF"/>
<path d="M857.157 34V24.864C857.157 24.16 857.295 23.6107 857.573 23.216C857.85 22.8213 858.197 22.5493 858.613 22.4C859.029 22.24 859.445 22.16 859.861 22.16C860.245 22.16 860.719 22.1653 861.285 22.176C861.861 22.1867 862.469 22.208 863.109 22.24C863.759 22.2613 864.383 22.304 864.981 22.368V24.352H860.517C860.186 24.352 859.935 24.4427 859.765 24.624C859.605 24.7947 859.525 25.0187 859.525 25.296V27.328L864.213 27.456V29.328L859.525 29.456V34H857.157ZM869.285 34C868.357 34 867.658 33.7867 867.189 33.36C866.72 32.9333 866.485 32.2133 866.485 31.2V22.16H868.853V30.816C868.853 31.2107 868.949 31.4827 869.141 31.632C869.344 31.7813 869.6 31.856 869.909 31.856H873.653V34H869.285ZM877.301 34V30.416L873.733 22.16H876.197L878.533 28L880.853 22.16H883.221L879.669 30.416V34H877.301ZM884.772 30.752L884.484 22.176H886.852L886.532 30.752H884.772ZM884.948 34.016C884.724 34.016 884.612 33.9093 884.612 33.696V32.064C884.612 31.84 884.724 31.728 884.948 31.728H886.324C886.548 31.728 886.66 31.84 886.66 32.064V33.696C886.66 33.824 886.628 33.9093 886.564 33.952C886.5 33.9947 886.42 34.016 886.324 34.016H884.948Z" fill="#00ADEF"/>
</svg>
