<svg width="33" height="33" viewBox="0 0 33 33" fill="none" xmlns="http://www.w3.org/2000/svg">
<path d="M33 16.5C33 7.3873 25.6127 0 16.5 0C7.3873 0 0 7.3873 0 16.5C0 22.6184 3.33029 27.9589 8.27694 30.808H24.723C29.6697 27.9589 33 22.6184 33 16.5Z" fill="white"/>
<path d="M32.9445 17.8625L28.7501 13.6681L27.8441 13.9966L20.9701 7.12259L4.66943 18.5848L16.8926 30.808H24.722C29.2982 28.1727 32.4915 23.4056 32.9445 17.8625Z" fill="#FDFBFF"/>
<path d="M8.30493 30.8242C10.7193 32.2086 13.5172 33 16.4999 33C19.4826 33 22.2804 32.2086 24.6948 30.8242L22.2006 14.3244H10.7991L8.30493 30.8242Z" fill="#15191E"/>
<path d="M29.0151 17.407C29.0151 19.3973 23.4119 21.0108 16.5001 21.0108C9.58828 21.0108 3.98511 19.3973 3.98511 17.407V14.4084H29.015V17.407H29.0151Z" fill="#15191E"/>
<path d="M16.5078 14.4084V21.0108C23.416 21.0096 29.015 19.3966 29.015 17.407V14.4084H16.5078Z" fill="#15191E"/>
<path d="M16.5001 18.0122C23.4119 18.0122 29.0151 16.3987 29.0151 14.4084C29.0151 12.418 23.4119 10.8045 16.5001 10.8045C9.58826 10.8045 3.98511 12.418 3.98511 14.4084C3.98511 16.3987 9.58826 18.0122 16.5001 18.0122Z" fill="#15191E"/>
<path d="M10.2185 13.3606V11.5351C10.2185 8.06595 13.0308 5.25366 16.4999 5.25366C19.969 5.25366 22.7813 8.06595 22.7813 11.5351V13.3606C22.7813 13.3606 16.9477 15.5044 10.2185 13.3606Z" fill="#15191E"/>
<path d="M22.7815 11.5351C22.7815 8.06855 19.9734 5.25801 16.5078 5.25375V14.313C20.2077 14.3059 22.7815 13.3606 22.7815 13.3606V11.5351Z" fill="#15191E"/>
<path d="M16.5 16.7602C17.5669 16.7602 18.4318 16.3465 18.4318 15.8363C18.4318 15.326 17.5669 14.9123 16.5 14.9123C15.433 14.9123 14.5681 15.326 14.5681 15.8363C14.5681 16.3465 15.433 16.7602 16.5 16.7602Z" fill="#15191E"/>
<path d="M18.4319 15.8363C18.4319 15.3272 17.5712 14.9144 16.5078 14.9124V16.7601C17.5711 16.7581 18.4319 16.3453 18.4319 15.8363Z" fill="#15191E"/>
<path d="M25.4033 15.3323C26.4702 15.3323 27.3351 14.9186 27.3351 14.4083C27.3351 13.8981 26.4702 13.4844 25.4033 13.4844C24.3364 13.4844 23.4714 13.8981 23.4714 14.4083C23.4714 14.9186 24.3364 15.3323 25.4033 15.3323Z" fill="#15191E"/>
<path d="M7.59689 15.3323C8.66383 15.3323 9.52875 14.9186 9.52875 14.4083C9.52875 13.8981 8.66383 13.4844 7.59689 13.4844C6.52996 13.4844 5.66504 13.8981 5.66504 14.4083C5.66504 14.9186 6.52996 15.3323 7.59689 15.3323Z" fill="#15191E"/>
</svg>
