<svg width="891" height="62" viewBox="0 0 891 62" fill="none" xmlns="http://www.w3.org/2000/svg">
<circle cx="19.5" cy="22.5" r="10.25" fill="#00ADEF"/>
<circle cx="19.5" cy="22.5" r="10.25" stroke="#00ADEF" stroke-width="1.5"/>
<circle cx="19.5" cy="22.5" r="10.25" stroke="#00ADEF" stroke-width="1.5"/>
<path d="M11 22.25H861" stroke="#00ADEF" stroke-width="1.5"/>
<circle cx="661.5" cy="22.5" r="10.25" fill="black" stroke="#00ADEF" stroke-width="1.5"/>
<circle cx="230.5" cy="22.5" r="10.25" fill="black"/>
<circle cx="230.5" cy="22.5" r="10.25" stroke="#00ADEF" stroke-width="1.5"/>
<circle cx="230.5" cy="22.5" r="10.25" stroke="#00ADEF" stroke-width="1.5"/>
<circle cx="439.5" cy="21.5" r="20.25" fill="black" stroke="#00ADEF" stroke-width="1.5"/>
<circle cx="860.5" cy="22.5" r="10.25" fill="black"/>
<circle cx="860.5" cy="22.5" r="10.25" stroke="#00ADEF" stroke-width="1.5"/>
<circle cx="860.5" cy="22.5" r="10.25" stroke="#00ADEF" stroke-width="1.5"/>
<path d="M5.11738 57.096C4.43471 57.096 3.82671 57.016 3.29338 56.856C2.76004 56.696 2.31204 56.4027 1.94938 55.976C1.58671 55.5493 1.30938 54.9413 1.11738 54.152C0.925375 53.352 0.829375 52.3173 0.829375 51.048C0.829375 49.8213 0.925375 48.8187 1.11738 48.04C1.32004 47.2613 1.60804 46.6533 1.98138 46.216C2.35471 45.7787 2.80804 45.4747 3.34138 45.304C3.87471 45.1333 4.47738 45.048 5.14938 45.048C5.93871 45.048 6.65338 45.112 7.29338 45.24C7.94404 45.3573 8.46138 45.48 8.84538 45.608V47.448C8.55738 47.384 8.12004 47.3253 7.53338 47.272C6.95738 47.208 6.32804 47.176 5.64538 47.176C5.19738 47.176 4.81338 47.2293 4.49338 47.336C4.18404 47.432 3.93338 47.6187 3.74138 47.896C3.56004 48.1627 3.42138 48.552 3.32538 49.064C3.24004 49.576 3.19738 50.2427 3.19738 51.064C3.19738 52.1307 3.26671 52.9467 3.40538 53.512C3.54404 54.0667 3.78938 54.4507 4.14138 54.664C4.49338 54.8667 4.99471 54.968 5.64538 54.968C6.44538 54.968 7.10138 54.952 7.61338 54.92C8.12538 54.888 8.53604 54.8507 8.84538 54.808V56.632C8.40804 56.7813 7.88004 56.8987 7.26138 56.984C6.65338 57.0587 5.93871 57.096 5.11738 57.096ZM10.5084 57V45.16H15.4044C16.023 45.16 16.5884 45.2667 17.1004 45.48C17.6124 45.6827 18.0177 46.0613 18.3164 46.616C18.6257 47.16 18.7804 47.9387 18.7804 48.952C18.7804 49.688 18.6897 50.2747 18.5084 50.712C18.327 51.1387 18.0924 51.4693 17.8044 51.704C17.5164 51.9387 17.2177 52.12 16.9084 52.248L19.1164 57H16.7004L14.7964 52.616C14.5297 52.616 14.215 52.616 13.8524 52.616C13.4897 52.6053 13.1644 52.5947 12.8764 52.584V57H10.5084ZM12.8764 50.712H14.9884C15.415 50.712 15.7564 50.5947 16.0124 50.36C16.279 50.1147 16.4124 49.6453 16.4124 48.952C16.4124 48.28 16.279 47.8373 16.0124 47.624C15.7457 47.4 15.4044 47.288 14.9884 47.288H12.8764V50.712ZM23.4196 57.08C23.1636 57.08 22.8703 57.0533 22.5396 57C22.209 56.9573 21.889 56.8507 21.5796 56.68C21.281 56.5093 21.0303 56.2533 20.8276 55.912C20.6356 55.56 20.5396 55.08 20.5396 54.472V47.864C20.5396 47.16 20.6783 46.6107 20.9556 46.216C21.233 45.8213 21.5796 45.5493 21.9956 45.4C22.4116 45.24 22.8276 45.16 23.2436 45.16C24.4383 45.16 25.4356 45.1813 26.2356 45.224C27.0356 45.2667 27.745 45.3147 28.3636 45.368V47.352H23.9476C23.617 47.352 23.361 47.432 23.1796 47.592C22.9983 47.752 22.9076 47.9973 22.9076 48.328V50.04L27.5956 50.168V52.04L22.9076 52.168V53.8C22.9076 54.216 23.0036 54.4987 23.1956 54.648C23.3983 54.7867 23.633 54.856 23.8996 54.856H28.3636V56.84C27.649 56.9147 26.8436 56.9733 25.9476 57.016C25.0516 57.0587 24.209 57.08 23.4196 57.08ZM29.3345 57L33.0465 45.16H36.0385L39.7505 57H37.2865L36.5345 54.52H32.5025L31.7665 57H29.3345ZM33.0625 52.392H35.9745L34.5185 47.192L33.0625 52.392ZM42.7228 57V47.288H39.4748V45.16H48.3548V47.288H45.0908V57H42.7228ZM52.3571 57.08C52.1011 57.08 51.8078 57.0533 51.4771 57C51.1465 56.9573 50.8265 56.8507 50.5171 56.68C50.2185 56.5093 49.9678 56.2533 49.7651 55.912C49.5731 55.56 49.4771 55.08 49.4771 54.472V47.864C49.4771 47.16 49.6158 46.6107 49.8931 46.216C50.1705 45.8213 50.5171 45.5493 50.9331 45.4C51.3491 45.24 51.7651 45.16 52.1811 45.16C53.3758 45.16 54.3731 45.1813 55.1731 45.224C55.9731 45.2667 56.6825 45.3147 57.3011 45.368V47.352H52.8851C52.5545 47.352 52.2985 47.432 52.1171 47.592C51.9358 47.752 51.8451 47.9973 51.8451 48.328V50.04L56.5331 50.168V52.04L51.8451 52.168V53.8C51.8451 54.216 51.9411 54.4987 52.1331 54.648C52.3358 54.7867 52.5705 54.856 52.8371 54.856H57.3011V56.84C56.5865 56.9147 55.7811 56.9733 54.8851 57.016C53.9891 57.0587 53.1465 57.08 52.3571 57.08Z" fill="#00ADEF"/>
<path d="M213.343 57L209.631 45.16H212.079L214.847 54.44L217.615 45.16H220.047L216.335 57H213.343ZM225.756 57.096C224.946 57.096 224.236 57.0213 223.628 56.872C223.02 56.712 222.514 56.424 222.108 56.008C221.703 55.5813 221.394 54.9733 221.18 54.184C220.978 53.3947 220.876 52.3653 220.876 51.096C220.876 49.8267 220.978 48.7973 221.18 48.008C221.394 47.208 221.703 46.5947 222.108 46.168C222.524 45.7413 223.031 45.448 223.628 45.288C224.236 45.128 224.946 45.048 225.756 45.048C226.567 45.048 227.276 45.128 227.884 45.288C228.492 45.448 228.999 45.7413 229.404 46.168C229.81 46.5947 230.114 47.208 230.316 48.008C230.519 48.7973 230.62 49.8267 230.62 51.096C230.62 52.3653 230.519 53.3947 230.316 54.184C230.114 54.9733 229.81 55.5813 229.404 56.008C228.999 56.424 228.487 56.712 227.868 56.872C227.26 57.0213 226.556 57.096 225.756 57.096ZM225.756 54.968C226.226 54.968 226.62 54.92 226.94 54.824C227.271 54.7173 227.527 54.5253 227.708 54.248C227.9 53.9707 228.039 53.5813 228.124 53.08C228.21 52.568 228.252 51.9067 228.252 51.096C228.252 50.2533 228.21 49.576 228.124 49.064C228.039 48.5413 227.9 48.1467 227.708 47.88C227.516 47.6027 227.26 47.416 226.94 47.32C226.62 47.224 226.226 47.176 225.756 47.176C225.287 47.176 224.892 47.224 224.572 47.32C224.263 47.416 224.007 47.6027 223.804 47.88C223.612 48.1467 223.468 48.5413 223.372 49.064C223.287 49.576 223.244 50.2533 223.244 51.096C223.244 51.9067 223.282 52.568 223.356 53.08C223.442 53.5813 223.58 53.9707 223.772 54.248C223.964 54.5253 224.22 54.7173 224.54 54.824C224.86 54.92 225.266 54.968 225.756 54.968ZM234.77 57V47.288H231.522V45.16H240.402V47.288H237.138V57H234.77ZM241.68 57V45.16H244.048V57H241.68ZM246.182 57V45.16H248.086L253.046 52.968V45.16H255.414V57H253.51L248.566 49.192V57H246.182ZM260.728 57.08C259.736 57.08 258.973 56.8347 258.44 56.344C257.917 55.8427 257.554 55.144 257.352 54.248C257.16 53.3413 257.064 52.2853 257.064 51.08C257.064 50.1307 257.122 49.2827 257.24 48.536C257.368 47.7893 257.586 47.16 257.896 46.648C258.216 46.1253 258.658 45.7307 259.224 45.464C259.8 45.1867 260.536 45.048 261.432 45.048C262.253 45.048 262.973 45.096 263.592 45.192C264.21 45.288 264.824 45.416 265.432 45.576V47.4C265.09 47.3573 264.594 47.3093 263.944 47.256C263.293 47.2027 262.6 47.176 261.864 47.176C261.192 47.176 260.68 47.2987 260.328 47.544C259.976 47.7893 259.736 48.1947 259.608 48.76C259.49 49.3253 259.432 50.104 259.432 51.096C259.432 52.12 259.496 52.9093 259.624 53.464C259.752 54.008 259.965 54.3867 260.264 54.6C260.562 54.8027 260.968 54.904 261.48 54.904C261.928 54.904 262.349 54.8667 262.744 54.792C263.138 54.7173 263.458 54.6427 263.704 54.568V52.264H261.576V50.392C261.906 50.3493 262.328 50.312 262.84 50.28C263.362 50.248 263.853 50.232 264.312 50.232C264.653 50.232 264.957 50.2373 265.224 50.248C265.501 50.2587 265.752 50.2693 265.976 50.28V57H264.2L263.88 56.2C263.57 56.3813 263.133 56.5733 262.568 56.776C262.002 56.9787 261.389 57.08 260.728 57.08Z" fill="#00ADEF"/>
<path d="M414.446 57V45.16H419.342C419.961 45.16 420.526 45.2667 421.038 45.48C421.55 45.6827 421.955 46.0613 422.254 46.616C422.563 47.16 422.718 47.9387 422.718 48.952C422.718 49.688 422.627 50.2747 422.446 50.712C422.265 51.1387 422.03 51.4693 421.742 51.704C421.454 51.9387 421.155 52.12 420.846 52.248L423.054 57H420.638L418.734 52.616C418.467 52.616 418.153 52.616 417.79 52.616C417.427 52.6053 417.102 52.5947 416.814 52.584V57H414.446ZM416.814 50.712H418.926C419.353 50.712 419.694 50.5947 419.95 50.36C420.217 50.1147 420.35 49.6453 420.35 48.952C420.35 48.28 420.217 47.8373 419.95 47.624C419.683 47.4 419.342 47.288 418.926 47.288H416.814V50.712ZM427.357 57.08C427.101 57.08 426.808 57.0533 426.477 57C426.146 56.9573 425.826 56.8507 425.517 56.68C425.218 56.5093 424.968 56.2533 424.765 55.912C424.573 55.56 424.477 55.08 424.477 54.472V47.864C424.477 47.16 424.616 46.6107 424.893 46.216C425.17 45.8213 425.517 45.5493 425.933 45.4C426.349 45.24 426.765 45.16 427.181 45.16C428.376 45.16 429.373 45.1813 430.173 45.224C430.973 45.2667 431.682 45.3147 432.301 45.368V47.352H427.885C427.554 47.352 427.298 47.432 427.117 47.592C426.936 47.752 426.845 47.9973 426.845 48.328V50.04L431.533 50.168V52.04L426.845 52.168V53.8C426.845 54.216 426.941 54.4987 427.133 54.648C427.336 54.7867 427.57 54.856 427.837 54.856H432.301V56.84C431.586 56.9147 430.781 56.9733 429.885 57.016C428.989 57.0587 428.146 57.08 427.357 57.08ZM433.272 57L436.984 45.16H439.976L443.688 57H441.224L440.472 54.52H436.44L435.704 57H433.272ZM437 52.392H439.912L438.456 47.192L437 52.392ZM444.977 57V45.16H449.985C451.052 45.16 451.884 45.4107 452.481 45.912C453.089 46.4133 453.51 47.1067 453.745 47.992C453.99 48.8773 454.113 49.9067 454.113 51.08C454.113 53.0747 453.772 54.5627 453.089 55.544C452.406 56.5147 451.372 57 449.985 57H444.977ZM447.345 54.872H449.745C450.481 54.872 450.998 54.552 451.297 53.912C451.596 53.272 451.745 52.328 451.745 51.08C451.745 50.056 451.67 49.272 451.521 48.728C451.372 48.1733 451.148 47.7947 450.849 47.592C450.561 47.3893 450.193 47.288 449.745 47.288H447.345V54.872ZM458.434 57V53.416L454.866 45.16H457.33L459.666 51L461.986 45.16H464.354L460.802 53.416V57H458.434ZM465.905 53.752L465.617 45.176H467.985L467.665 53.752H465.905ZM466.081 57.016C465.857 57.016 465.745 56.9093 465.745 56.696V55.064C465.745 54.84 465.857 54.728 466.081 54.728H467.457C467.681 54.728 467.793 54.84 467.793 55.064V56.696C467.793 56.824 467.761 56.9093 467.697 56.952C467.633 56.9947 467.553 57.016 467.457 57.016H466.081Z" fill="#00ADEF"/>
<path d="M605.977 57.096C605.294 57.096 604.686 57.016 604.153 56.856C603.619 56.696 603.171 56.4027 602.809 55.976C602.446 55.5493 602.169 54.9413 601.977 54.152C601.785 53.352 601.689 52.3173 601.689 51.048C601.689 49.8213 601.785 48.8187 601.977 48.04C602.179 47.2613 602.467 46.6533 602.841 46.216C603.214 45.7787 603.667 45.4747 604.201 45.304C604.734 45.1333 605.337 45.048 606.009 45.048C606.798 45.048 607.513 45.112 608.153 45.24C608.803 45.3573 609.321 45.48 609.705 45.608V47.448C609.417 47.384 608.979 47.3253 608.393 47.272C607.817 47.208 607.187 47.176 606.505 47.176C606.057 47.176 605.673 47.2293 605.353 47.336C605.043 47.432 604.793 47.6187 604.601 47.896C604.419 48.1627 604.281 48.552 604.185 49.064C604.099 49.576 604.057 50.2427 604.057 51.064C604.057 52.1307 604.126 52.9467 604.265 53.512C604.403 54.0667 604.649 54.4507 605.001 54.664C605.353 54.8667 605.854 54.968 606.505 54.968C607.305 54.968 607.961 54.952 608.473 54.92C608.985 54.888 609.395 54.8507 609.705 54.808V56.632C609.267 56.7813 608.739 56.8987 608.121 56.984C607.513 57.0587 606.798 57.096 605.977 57.096ZM610.616 57L614.328 45.16H617.32L621.032 57H618.568L617.816 54.52H613.784L613.048 57H610.616ZM614.344 52.392H617.256L615.8 47.192L614.344 52.392ZM625.121 57C624.193 57 623.494 56.7867 623.025 56.36C622.556 55.9333 622.321 55.2133 622.321 54.2V45.16H624.689V53.816C624.689 54.2107 624.785 54.4827 624.977 54.632C625.18 54.7813 625.436 54.856 625.745 54.856H629.489V57H625.121ZM633.683 57C632.755 57 632.057 56.7867 631.587 56.36C631.118 55.9333 630.883 55.2133 630.883 54.2V45.16H633.251V53.816C633.251 54.2107 633.347 54.4827 633.539 54.632C633.742 54.7813 633.998 54.856 634.307 54.856H638.051V57H633.683ZM643.571 57V47.864C643.571 47.16 643.71 46.6107 643.987 46.216C644.264 45.8213 644.611 45.5493 645.027 45.4C645.443 45.24 645.859 45.16 646.275 45.16C646.659 45.16 647.134 45.1653 647.699 45.176C648.275 45.1867 648.883 45.208 649.523 45.24C650.174 45.2613 650.798 45.304 651.395 45.368V47.352H646.931C646.6 47.352 646.35 47.4427 646.179 47.624C646.019 47.7947 645.939 48.0187 645.939 48.296V50.328L650.627 50.456V52.328L645.939 52.456V57H643.571ZM657.475 57.096C656.664 57.096 655.955 57.0213 655.347 56.872C654.739 56.712 654.232 56.424 653.827 56.008C653.422 55.5813 653.112 54.9733 652.899 54.184C652.696 53.3947 652.595 52.3653 652.595 51.096C652.595 49.8267 652.696 48.7973 652.899 48.008C653.112 47.208 653.422 46.5947 653.827 46.168C654.243 45.7413 654.75 45.448 655.347 45.288C655.955 45.128 656.664 45.048 657.475 45.048C658.286 45.048 658.995 45.128 659.603 45.288C660.211 45.448 660.718 45.7413 661.123 46.168C661.528 46.5947 661.832 47.208 662.035 48.008C662.238 48.7973 662.339 49.8267 662.339 51.096C662.339 52.3653 662.238 53.3947 662.035 54.184C661.832 54.9733 661.528 55.5813 661.123 56.008C660.718 56.424 660.206 56.712 659.587 56.872C658.979 57.0213 658.275 57.096 657.475 57.096ZM657.475 54.968C657.944 54.968 658.339 54.92 658.659 54.824C658.99 54.7173 659.246 54.5253 659.427 54.248C659.619 53.9707 659.758 53.5813 659.843 53.08C659.928 52.568 659.971 51.9067 659.971 51.096C659.971 50.2533 659.928 49.576 659.843 49.064C659.758 48.5413 659.619 48.1467 659.427 47.88C659.235 47.6027 658.979 47.416 658.659 47.32C658.339 47.224 657.944 47.176 657.475 47.176C657.006 47.176 656.611 47.224 656.291 47.32C655.982 47.416 655.726 47.6027 655.523 47.88C655.331 48.1467 655.187 48.5413 655.091 49.064C655.006 49.576 654.963 50.2533 654.963 51.096C654.963 51.9067 655 52.568 655.075 53.08C655.16 53.5813 655.299 53.9707 655.491 54.248C655.683 54.5253 655.939 54.7173 656.259 54.824C656.579 54.92 656.984 54.968 657.475 54.968ZM664.087 57V45.16H668.983C669.601 45.16 670.167 45.2667 670.679 45.48C671.191 45.6827 671.596 46.0613 671.895 46.616C672.204 47.16 672.359 47.9387 672.359 48.952C672.359 49.688 672.268 50.2747 672.087 50.712C671.905 51.1387 671.671 51.4693 671.383 51.704C671.095 51.9387 670.796 52.12 670.487 52.248L672.695 57H670.279L668.375 52.616C668.108 52.616 667.793 52.616 667.431 52.616C667.068 52.6053 666.743 52.5947 666.455 52.584V57H664.087ZM666.455 50.712H668.567C668.993 50.712 669.335 50.5947 669.591 50.36C669.857 50.1147 669.991 49.6453 669.991 48.952C669.991 48.28 669.857 47.8373 669.591 47.624C669.324 47.4 668.983 47.288 668.567 47.288H666.455V50.712ZM682.227 57.096C681.544 57.096 680.936 57.016 680.403 56.856C679.869 56.696 679.421 56.4027 679.059 55.976C678.696 55.5493 678.419 54.9413 678.227 54.152C678.035 53.352 677.939 52.3173 677.939 51.048C677.939 49.8213 678.035 48.8187 678.227 48.04C678.429 47.2613 678.717 46.6533 679.091 46.216C679.464 45.7787 679.917 45.4747 680.451 45.304C680.984 45.1333 681.587 45.048 682.259 45.048C683.048 45.048 683.763 45.112 684.403 45.24C685.053 45.3573 685.571 45.48 685.955 45.608V47.448C685.667 47.384 685.229 47.3253 684.643 47.272C684.067 47.208 683.437 47.176 682.755 47.176C682.307 47.176 681.923 47.2293 681.603 47.336C681.293 47.432 681.043 47.6187 680.851 47.896C680.669 48.1627 680.531 48.552 680.435 49.064C680.349 49.576 680.307 50.2427 680.307 51.064C680.307 52.1307 680.376 52.9467 680.515 53.512C680.653 54.0667 680.899 54.4507 681.251 54.664C681.603 54.8667 682.104 54.968 682.755 54.968C683.555 54.968 684.211 54.952 684.723 54.92C685.235 54.888 685.645 54.8507 685.955 54.808V56.632C685.517 56.7813 684.989 56.8987 684.371 56.984C683.763 57.0587 683.048 57.096 682.227 57.096ZM687.618 57V45.16H692.514C693.132 45.16 693.698 45.2667 694.21 45.48C694.722 45.6827 695.127 46.0613 695.426 46.616C695.735 47.16 695.89 47.9387 695.89 48.952C695.89 49.688 695.799 50.2747 695.618 50.712C695.436 51.1387 695.202 51.4693 694.914 51.704C694.626 51.9387 694.327 52.12 694.018 52.248L696.226 57H693.81L691.906 52.616C691.639 52.616 691.324 52.616 690.962 52.616C690.599 52.6053 690.274 52.5947 689.986 52.584V57H687.618ZM689.986 50.712H692.098C692.524 50.712 692.866 50.5947 693.122 50.36C693.388 50.1147 693.522 49.6453 693.522 48.952C693.522 48.28 693.388 47.8373 693.122 47.624C692.855 47.4 692.514 47.288 692.098 47.288H689.986V50.712ZM700.529 57.08C700.273 57.08 699.98 57.0533 699.649 57C699.318 56.9573 698.998 56.8507 698.689 56.68C698.39 56.5093 698.14 56.2533 697.937 55.912C697.745 55.56 697.649 55.08 697.649 54.472V47.864C697.649 47.16 697.788 46.6107 698.065 46.216C698.342 45.8213 698.689 45.5493 699.105 45.4C699.521 45.24 699.937 45.16 700.353 45.16C701.548 45.16 702.545 45.1813 703.345 45.224C704.145 45.2667 704.854 45.3147 705.473 45.368V47.352H701.057C700.726 47.352 700.47 47.432 700.289 47.592C700.108 47.752 700.017 47.9973 700.017 48.328V50.04L704.705 50.168V52.04L700.017 52.168V53.8C700.017 54.216 700.113 54.4987 700.305 54.648C700.508 54.7867 700.742 54.856 701.009 54.856H705.473V56.84C704.758 56.9147 703.953 56.9733 703.057 57.016C702.161 57.0587 701.318 57.08 700.529 57.08ZM709.276 57L706.444 45.16H708.892L710.796 53.512L713.02 45.16H715.196L717.404 53.512L719.308 45.16H721.756L718.924 57H716.508L714.108 48.648L711.692 57H709.276Z" fill="#00ADEF"/>
<path d="M847.157 57V47.864C847.157 47.16 847.295 46.6107 847.573 46.216C847.85 45.8213 848.197 45.5493 848.613 45.4C849.029 45.24 849.445 45.16 849.861 45.16C850.245 45.16 850.719 45.1653 851.285 45.176C851.861 45.1867 852.469 45.208 853.109 45.24C853.759 45.2613 854.383 45.304 854.981 45.368V47.352H850.517C850.186 47.352 849.935 47.4427 849.765 47.624C849.605 47.7947 849.525 48.0187 849.525 48.296V50.328L854.213 50.456V52.328L849.525 52.456V57H847.157ZM859.285 57C858.357 57 857.658 56.7867 857.189 56.36C856.72 55.9333 856.485 55.2133 856.485 54.2V45.16H858.853V53.816C858.853 54.2107 858.949 54.4827 859.141 54.632C859.344 54.7813 859.6 54.856 859.909 54.856H863.653V57H859.285ZM867.301 57V53.416L863.733 45.16H866.197L868.533 51L870.853 45.16H873.221L869.669 53.416V57H867.301ZM874.772 53.752L874.484 45.176H876.852L876.532 53.752H874.772ZM874.948 57.016C874.724 57.016 874.612 56.9093 874.612 56.696V55.064C874.612 54.84 874.724 54.728 874.948 54.728H876.324C876.548 54.728 876.66 54.84 876.66 55.064V56.696C876.66 56.824 876.628 56.9093 876.564 56.952C876.5 56.9947 876.42 57.016 876.324 57.016H874.948Z" fill="#00ADEF"/>
</svg>
