<svg width="212" height="72" viewBox="0 0 212 72" fill="none" xmlns="http://www.w3.org/2000/svg">
<path d="M54.0738 36.132C52.9298 36.132 51.8885 36.0807 50.9498 35.978C50.0258 35.8607 49.2778 35.736 48.7058 35.604L49.1018 33.03C49.7618 33.0887 50.5318 33.1327 51.4118 33.162C52.3065 33.1913 53.1718 33.206 54.0078 33.206C54.9465 33.206 55.6431 33.096 56.0978 32.876C56.5671 32.656 56.8531 32.2307 56.9558 31.6L57.0438 31.028C57.0585 30.94 57.0658 30.8667 57.0658 30.808C57.0805 30.7347 57.0878 30.6613 57.0878 30.588C57.0878 30.1773 56.9411 29.884 56.6478 29.708C56.3545 29.532 55.8851 29.444 55.2398 29.444H53.9418C52.7098 29.444 51.7491 29.136 51.0598 28.52C50.3851 27.8893 50.0478 27.0533 50.0478 26.012C50.0478 25.7187 50.0698 25.4107 50.1138 25.088L50.3338 23.768C50.5685 22.2133 51.1918 21.128 52.2038 20.512C53.2158 19.896 54.5285 19.588 56.1418 19.588C56.8458 19.588 57.6451 19.6393 58.5398 19.742C59.4491 19.83 60.3071 19.962 61.1138 20.138L60.6958 22.712C60.1825 22.668 59.6251 22.6313 59.0238 22.602C58.4225 22.5727 57.8358 22.558 57.2638 22.558C56.6918 22.5433 56.1858 22.536 55.7458 22.536C55.0858 22.536 54.5505 22.646 54.1398 22.866C53.7291 23.086 53.4725 23.5113 53.3698 24.142L53.2818 24.714C53.2671 24.802 53.2525 24.89 53.2378 24.978C53.2378 25.0513 53.2378 25.1247 53.2378 25.198C53.2378 25.6087 53.3551 25.9093 53.5898 26.1C53.8245 26.276 54.1985 26.364 54.7118 26.364H56.0978C57.4618 26.364 58.4958 26.6793 59.1998 27.31C59.9038 27.9407 60.2558 28.7693 60.2558 29.796C60.2558 30.06 60.2338 30.3533 60.1898 30.676L59.9698 32.194C59.7498 33.558 59.1925 34.5553 58.2978 35.186C57.4031 35.8167 55.9951 36.132 54.0738 36.132ZM67.5431 36.132C65.7831 36.132 64.4558 35.7507 63.5611 34.988C62.6665 34.2253 62.2191 32.9713 62.2191 31.226C62.2191 30.8447 62.2411 30.4193 62.2851 29.95C62.3438 29.466 62.4171 28.9747 62.5051 28.476L63.8911 19.72H67.1471L65.6951 28.96C65.6365 29.3267 65.5851 29.686 65.5411 30.038C65.4971 30.39 65.4751 30.698 65.4751 30.962C65.4751 31.754 65.6731 32.326 66.0691 32.678C66.4651 33.03 67.1031 33.206 67.9831 33.206C68.6431 33.206 69.2078 33.096 69.6771 32.876C70.1465 32.656 70.5351 32.2453 70.8431 31.644C71.1658 31.028 71.4151 30.1333 71.5911 28.96L73.0651 19.72H76.3211L74.7811 29.444C74.5465 30.8667 74.2238 32.0253 73.8131 32.92C73.4171 33.8 72.9185 34.4747 72.3171 34.944C71.7158 35.3987 71.0191 35.714 70.2271 35.89C69.4351 36.0513 68.5405 36.132 67.5431 36.132ZM76.4856 36L79.0376 19.72H85.3516C86.4369 19.72 87.2803 19.8593 87.8816 20.138C88.4976 20.4167 88.9229 20.8127 89.1576 21.326C89.4069 21.8247 89.5316 22.404 89.5316 23.064C89.5316 23.24 89.5243 23.4233 89.5096 23.614C89.5096 23.8047 89.4876 24.0027 89.4436 24.208C89.3116 25.0293 88.9816 25.7407 88.4536 26.342C87.9403 26.9433 87.2729 27.3393 86.4516 27.53C87.1849 27.7207 87.7643 28.0653 88.1896 28.564C88.6296 29.0627 88.8496 29.796 88.8496 30.764C88.8496 30.9107 88.8423 31.0867 88.8276 31.292C88.8129 31.4973 88.7763 31.776 88.7176 32.128C88.4683 33.5213 87.8523 34.5187 86.8696 35.12C85.8869 35.7067 84.5523 36 82.8656 36H76.4856ZM81.2376 26.408H84.2736C84.8749 26.408 85.3223 26.254 85.6156 25.946C85.9089 25.638 86.1069 25.2493 86.2096 24.78C86.2389 24.6187 86.2609 24.472 86.2756 24.34C86.3049 24.1933 86.3196 24.0613 86.3196 23.944C86.3196 23.4747 86.1729 23.1447 85.8796 22.954C85.6009 22.7487 85.1976 22.646 84.6696 22.646H81.8536L81.2376 26.408ZM80.2036 33.074H83.2836C84.0756 33.074 84.6476 32.9127 84.9996 32.59C85.3663 32.2527 85.6083 31.7393 85.7256 31.05C85.7403 30.9327 85.7476 30.83 85.7476 30.742C85.7623 30.6393 85.7696 30.5367 85.7696 30.434C85.7696 29.422 85.1463 28.916 83.8996 28.916H80.8636L80.2036 33.074ZM89.9665 36L94.5205 19.72H97.5785L99.4045 32.15L105.168 19.72H108.204L107.544 36H104.398L104.838 25.528L100.306 36H97.2485L96.0165 25.66L93.2005 36H89.9665ZM109.55 36L112.124 19.72H115.38L112.806 36H109.55ZM119.152 36L121.242 22.646H116.798L117.26 19.72H129.448L128.986 22.646H124.52L122.408 36H119.152ZM1.78392 65L3.76392 52.416C3.92526 51.4187 4.22592 50.656 4.66592 50.128C5.12059 49.5853 5.64859 49.2187 6.24992 49.028C6.85126 48.8227 7.45992 48.72 8.07592 48.72C9.33726 48.72 10.4959 48.7493 11.5519 48.808C12.6079 48.852 13.6639 48.918 14.7199 49.006L14.3019 51.734H8.55992C8.03192 51.734 7.63592 51.866 7.37192 52.13C7.12259 52.3793 6.96126 52.7607 6.88792 53.274L6.49192 55.892L12.5859 56.068L12.1679 58.642L6.02992 58.796L5.03992 65H1.78392ZM20.4499 65.132C19.3352 65.132 18.3526 65 17.5019 64.736C16.6659 64.472 16.0132 63.9733 15.5439 63.24C15.0746 62.492 14.8399 61.4067 14.8399 59.984C14.8399 59.4853 14.8692 58.928 14.9279 58.312C14.9866 57.6813 15.0672 57.0507 15.1699 56.42C15.4192 54.8947 15.7492 53.626 16.1599 52.614C16.5706 51.602 17.0912 50.8027 17.7219 50.216C18.3526 49.6293 19.1079 49.2113 19.9879 48.962C20.8826 48.7127 21.9239 48.588 23.1119 48.588C23.9186 48.588 24.6592 48.6613 25.3339 48.808C26.0232 48.9547 26.6172 49.226 27.1159 49.622C27.6292 50.0033 28.0252 50.546 28.3039 51.25C28.5826 51.954 28.7219 52.8633 28.7219 53.978C28.7219 54.4473 28.6926 54.99 28.6339 55.606C28.5752 56.222 28.4872 56.8527 28.3699 57.498C28.1352 59.0673 27.8052 60.358 27.3799 61.37C26.9692 62.3673 26.4486 63.1373 25.8179 63.68C25.1872 64.2227 24.4319 64.604 23.5519 64.824C22.6719 65.0293 21.6379 65.132 20.4499 65.132ZM20.9779 62.184C21.8432 62.184 22.5399 62.0227 23.0679 61.7C23.6106 61.3773 24.0359 60.842 24.3439 60.094C24.6666 59.346 24.9306 58.334 25.1359 57.058C25.2239 56.4567 25.2972 55.892 25.3559 55.364C25.4146 54.8213 25.4439 54.374 25.4439 54.022C25.4439 53.3327 25.3412 52.812 25.1359 52.46C24.9306 52.0933 24.6152 51.844 24.1899 51.712C23.7792 51.58 23.2586 51.514 22.6279 51.514C21.7919 51.514 21.1026 51.6607 20.5599 51.954C20.0319 52.2473 19.5992 52.7827 19.2619 53.56C18.9246 54.3227 18.6459 55.4227 18.4259 56.86C18.3232 57.4467 18.2426 58.004 18.1839 58.532C18.1252 59.0453 18.0959 59.4707 18.0959 59.808C18.0959 60.7613 18.3159 61.3993 18.7559 61.722C19.2106 62.03 19.9512 62.184 20.9779 62.184ZM29.5417 65L32.1157 48.72H38.3417C39.6617 48.72 40.7251 49.028 41.5317 49.644C42.3384 50.2453 42.7417 51.2867 42.7417 52.768C42.7417 53.1787 42.6977 53.648 42.6097 54.176C42.4924 54.9533 42.3091 55.5987 42.0597 56.112C41.8104 56.6253 41.5244 57.036 41.2017 57.344C40.8791 57.652 40.5564 57.894 40.2337 58.07C39.9111 58.2313 39.6324 58.356 39.3977 58.444L41.3777 65H38.0557L36.4057 58.95C36.0537 58.95 35.6211 58.95 35.1077 58.95C34.5944 58.9353 34.1471 58.928 33.7657 58.928L32.7977 65H29.5417ZM34.1617 56.354H36.9117C37.6304 56.354 38.1804 56.1853 38.5617 55.848C38.9431 55.496 39.1997 54.8653 39.3317 53.956C39.3611 53.824 39.3757 53.6993 39.3757 53.582C39.3904 53.45 39.3977 53.3327 39.3977 53.23C39.3977 52.6433 39.2437 52.2327 38.9357 51.998C38.6277 51.7633 38.2097 51.646 37.6817 51.646H34.9097L34.1617 56.354ZM53.1017 65L50.5937 48.72H53.9597L55.7197 61.458L61.5717 48.72H64.9377L57.1937 65H53.1017ZM70.2507 65.132C69.136 65.132 68.1533 65 67.3027 64.736C66.4667 64.472 65.814 63.9733 65.3447 63.24C64.8753 62.492 64.6407 61.4067 64.6407 59.984C64.6407 59.4853 64.67 58.928 64.7287 58.312C64.7873 57.6813 64.868 57.0507 64.9707 56.42C65.22 54.8947 65.55 53.626 65.9607 52.614C66.3713 51.602 66.892 50.8027 67.5227 50.216C68.1533 49.6293 68.9087 49.2113 69.7887 48.962C70.6833 48.7127 71.7247 48.588 72.9127 48.588C73.7193 48.588 74.46 48.6613 75.1347 48.808C75.824 48.9547 76.418 49.226 76.9167 49.622C77.43 50.0033 77.826 50.546 78.1047 51.25C78.3833 51.954 78.5227 52.8633 78.5227 53.978C78.5227 54.4473 78.4933 54.99 78.4347 55.606C78.376 56.222 78.288 56.8527 78.1707 57.498C77.936 59.0673 77.606 60.358 77.1807 61.37C76.77 62.3673 76.2493 63.1373 75.6187 63.68C74.988 64.2227 74.2327 64.604 73.3527 64.824C72.4727 65.0293 71.4387 65.132 70.2507 65.132ZM70.7787 62.184C71.644 62.184 72.3407 62.0227 72.8687 61.7C73.4113 61.3773 73.8367 60.842 74.1447 60.094C74.4673 59.346 74.7313 58.334 74.9367 57.058C75.0247 56.4567 75.098 55.892 75.1567 55.364C75.2153 54.8213 75.2447 54.374 75.2447 54.022C75.2447 53.3327 75.142 52.812 74.9367 52.46C74.7313 52.0933 74.416 51.844 73.9907 51.712C73.58 51.58 73.0593 51.514 72.4287 51.514C71.5927 51.514 70.9033 51.6607 70.3607 51.954C69.8327 52.2473 69.4 52.7827 69.0627 53.56C68.7253 54.3227 68.4467 55.4227 68.2267 56.86C68.124 57.4467 68.0433 58.004 67.9847 58.532C67.926 59.0453 67.8967 59.4707 67.8967 59.808C67.8967 60.7613 68.1167 61.3993 68.5567 61.722C69.0113 62.03 69.752 62.184 70.7787 62.184ZM82.8431 65L84.9331 51.646H80.4891L80.9511 48.72H93.1391L92.6771 51.646H88.2111L86.0991 65H82.8431ZM92.6413 65L95.2153 48.72H98.4713L95.8973 65H92.6413ZM98.6355 65L101.209 48.72H103.827L108.931 59.456L110.647 48.72H113.903L111.307 65H108.711L103.607 54.242L101.891 65H98.6355ZM118.751 65.132C117.211 65.132 116.119 64.7213 115.473 63.9C114.843 63.064 114.527 61.766 114.527 60.006C114.527 59.3753 114.564 58.7373 114.637 58.092C114.711 57.4467 114.799 56.8087 114.901 56.178C115.297 53.67 116.067 51.778 117.211 50.502C118.37 49.2113 119.969 48.566 122.007 48.566C123.357 48.566 124.457 48.6467 125.307 48.808C126.158 48.9547 126.921 49.1307 127.595 49.336L127.199 51.866C126.73 51.778 126.092 51.6973 125.285 51.624C124.493 51.536 123.525 51.492 122.381 51.492C121.443 51.492 120.695 51.6753 120.137 52.042C119.595 52.394 119.169 52.966 118.861 53.758C118.553 54.55 118.297 55.5987 118.091 56.904C117.915 58.092 117.827 59.038 117.827 59.742C117.827 60.5193 117.989 61.1133 118.311 61.524C118.634 61.92 119.162 62.118 119.895 62.118C120.262 62.118 120.658 62.096 121.083 62.052C121.523 61.9933 121.934 61.9273 122.315 61.854C122.697 61.7807 122.99 61.7147 123.195 61.656L123.701 58.466H120.775L121.193 55.892C121.589 55.848 122.088 55.804 122.689 55.76C123.305 55.716 124.031 55.694 124.867 55.694C125.102 55.694 125.373 55.7013 125.681 55.716C125.989 55.716 126.29 55.7233 126.583 55.738C126.877 55.738 127.104 55.738 127.265 55.738L125.813 65H123.349L123.085 63.9C122.807 64.0613 122.411 64.2373 121.897 64.428C121.384 64.6187 120.841 64.7873 120.269 64.934C119.697 65.066 119.191 65.132 118.751 65.132ZM129.47 60.534L130.944 48.742H134.2L131.868 60.534H129.47ZM129.03 65.022C128.766 65.022 128.634 64.9047 128.634 64.67V64.582L129.008 62.338C129.052 62.03 129.228 61.876 129.536 61.876H131.428C131.692 61.876 131.824 61.986 131.824 62.206V62.338L131.45 64.582C131.421 64.758 131.355 64.8753 131.252 64.934C131.164 64.9927 131.054 65.022 130.922 65.022H129.03Z" fill="#00ADEF"/>
<g clip-path="url(#clip0)">
<path d="M168.159 32.8363C167.747 32.7329 167.312 32.8719 167.035 33.1944L161.09 40.1348C160.488 40.8375 160.249 41.7603 160.434 42.667L161.819 49.4602C161.96 50.1477 162.434 50.7092 163.088 50.9622C163.743 51.2152 164.472 51.1188 165.038 50.7045L171.071 46.2895C171.118 46.2552 171.162 46.2177 171.202 46.1774C171.469 45.9098 171.587 45.5209 171.504 45.1437L168.981 33.6828C168.89 33.2676 168.572 32.9399 168.159 32.8363Z" fill="white"/>
<path d="M184.087 32.8364C183.675 32.9399 183.356 33.2677 183.265 33.6829L180.742 45.1437C180.647 45.5777 180.817 46.0271 181.175 46.2896L187.208 50.7046C187.775 51.1189 188.503 51.2152 189.158 50.9622C189.43 50.857 189.671 50.6984 189.87 50.4995C190.149 50.2204 190.345 49.8618 190.427 49.4603L191.812 42.667C191.997 41.7605 191.758 40.8375 191.156 40.1348L185.211 33.1945C184.935 32.8716 184.499 32.733 184.087 32.8364Z" fill="white"/>
<path d="M181.046 48.7813C181.677 48.7813 182.273 48.4806 182.64 47.9668C188.015 40.4335 187.778 29.9825 185.963 24.279C183.948 17.9458 179.617 13.4548 177.436 11.499C176.688 10.8288 175.558 10.8288 174.81 11.499C172.629 13.4549 168.298 17.9458 166.283 24.279C164.468 29.9825 164.232 40.4335 169.607 47.9668C169.973 48.4805 170.569 48.7813 171.2 48.7813L181.046 48.7813Z" fill="white"/>
<path d="M176.123 10.9964V48.7813L181.046 48.7813C181.677 48.7813 182.273 48.4805 182.64 47.9669C188.015 40.4335 187.778 29.9825 185.963 24.2791C183.948 17.9459 179.617 13.4549 177.436 11.4991C177.062 11.164 176.592 10.9964 176.123 10.9964Z" fill="white"/>
<path d="M180.085 31.1332C179.07 32.1486 177.669 32.777 176.123 32.777C174.626 32.7771 173.218 32.194 172.159 31.1351C171.1 30.0763 170.517 28.6684 170.517 27.171C170.517 24.0799 173.032 21.565 176.123 21.565C177.62 21.565 179.028 22.1482 180.087 23.207C181.146 24.2658 181.729 25.6736 181.729 27.1711C181.729 28.7165 181.1 30.1182 180.085 31.1332ZM171.638 27.1711L171.639 27.1705L171.638 27.1711Z" fill="white"/>
<path d="M169.607 47.9668C169.973 48.4805 170.569 48.7813 171.2 48.7813L181.046 48.7813C181.677 48.7813 182.273 48.4805 182.64 47.9668C183.809 46.3276 184.713 44.5502 185.393 42.7137L166.854 42.7138C167.533 44.5502 168.437 46.3277 169.607 47.9668Z" fill="white"/>
<path d="M172.172 58.677C172.375 58.4742 172.5 58.1938 172.5 57.8842L172.5 52.7073C172.5 52.0881 171.998 51.5861 171.379 51.5861C170.76 51.5861 170.258 52.088 170.258 52.7073L170.258 57.8842C170.258 58.5034 170.76 59.0054 171.379 59.0054C171.689 59.0054 171.969 58.8799 172.172 58.677Z" fill="white"/>
<path d="M176.123 51.5862C175.504 51.5862 175.002 52.0882 175.002 52.7074L175.002 62.6603C175.002 63.2795 175.504 63.7815 176.123 63.7815C176.433 63.7815 176.713 63.656 176.916 63.4531C177.119 63.2502 177.244 62.9699 177.244 62.6603L177.244 52.7073C177.244 52.0881 176.742 51.5861 176.123 51.5862Z" fill="white"/>
<path d="M180.867 51.5862C180.248 51.5862 179.746 52.0882 179.746 52.7074L179.746 57.8842C179.746 58.5034 180.248 59.0054 180.867 59.0054C181.177 59.0054 181.457 58.8799 181.66 58.6771C181.863 58.4742 181.989 58.1938 181.989 57.8843L181.989 52.7073C181.989 52.0882 181.487 51.5861 180.867 51.5862Z" fill="white"/>
<path d="M176.123 63.7815C176.433 63.7815 176.713 63.656 176.916 63.4531C177.119 63.2502 177.244 62.9698 177.244 62.6603L177.244 52.7073C177.244 52.0881 176.742 51.5861 176.123 51.5861L176.123 63.7815Z" fill="white"/>
<path d="M176.123 48.7813L181.046 48.7813C181.677 48.7813 182.273 48.4805 182.64 47.9669C183.809 46.3276 184.713 44.5503 185.393 42.7137L176.123 42.7137L176.123 48.7813Z" fill="white"/>
<path d="M176.123 32.7771C177.669 32.7771 179.07 32.1487 180.085 31.1333C181.1 30.1182 181.729 28.7164 181.729 27.1711C181.729 25.6736 181.146 24.2658 180.087 23.207C179.028 22.1481 177.621 21.5649 176.123 21.565L176.123 32.7771Z" fill="white"/>
<path d="M173.746 24.7938C173.137 25.4028 172.76 26.2437 172.76 27.1711C172.76 28.0695 173.109 28.9142 173.745 29.5495C174.38 30.1849 175.225 30.5346 176.123 30.5346C177.978 30.5346 179.487 29.0257 179.487 27.171C179.487 26.2725 179.137 25.4278 178.502 24.7925C177.866 24.1572 177.022 23.8074 176.123 23.8074C175.196 23.8074 174.355 24.1846 173.746 24.7938Z" fill="white"/>
<path d="M176.123 23.8075L176.123 30.5347C177.978 30.5347 179.487 29.0258 179.487 27.1711C179.487 26.2726 179.137 25.4279 178.502 24.7926C177.866 24.1573 177.022 23.8074 176.123 23.8075Z" fill="white"/>
</g>
<defs>
<clipPath id="clip0">
<rect width="38.2709" height="38.2709" fill="white" transform="translate(149.062 37.1847) rotate(-45)"/>
</clipPath>
</defs>
</svg>
