<svg width="55" height="55" viewBox="0 0 55 55" fill="none" xmlns="http://www.w3.org/2000/svg">
<g clip-path="url(#clip0)">
<path d="M19.1592 22.8363C18.7469 22.7329 18.3118 22.8719 18.0349 23.1944L12.0899 30.1348C11.488 30.8375 11.2488 31.7603 11.4337 32.667L12.8194 39.4602C12.9597 40.1477 13.434 40.7092 14.0885 40.9622C14.7429 41.2152 15.4715 41.1188 16.0377 40.7045L22.071 36.2895C22.1179 36.2552 22.1616 36.2177 22.2019 36.1774C22.4694 35.9098 22.5869 35.5209 22.5039 35.1437L19.9814 23.6828C19.8899 23.2676 19.5715 22.9399 19.1592 22.8363Z" fill="white"/>
<path d="M35.0869 22.8364C34.6746 22.9399 34.3562 23.2677 34.2648 23.6829L31.7423 35.1437C31.6468 35.5777 31.8166 36.0271 32.1752 36.2896L38.2084 40.7046C38.7746 41.1189 39.5033 41.2152 40.1578 40.9622C40.4299 40.857 40.6709 40.6984 40.8697 40.4995C41.1488 40.2204 41.3449 39.8618 41.4268 39.4603L42.8125 32.667C42.9975 31.7605 42.7583 30.8375 42.1563 30.1348L36.2113 23.1945C35.9348 22.8716 35.4993 22.733 35.0869 22.8364Z" fill="white"/>
<path d="M32.0462 38.7813C32.6773 38.7813 33.2732 38.4806 33.6397 37.9668C39.0147 30.4335 38.7782 19.9825 36.9634 14.279C34.9483 7.94581 30.6173 3.45484 28.4357 1.49897C27.6881 0.828773 26.558 0.828772 25.8104 1.49896C23.6289 3.45489 19.2979 7.94581 17.2828 14.279C15.4681 19.9825 15.2315 30.4335 20.6065 37.9668C20.9731 38.4805 21.569 38.7813 22.2001 38.7813L32.0462 38.7813Z" fill="white"/>
<path d="M27.123 0.996369V38.7813L32.046 38.7813C32.6771 38.7813 33.273 38.4805 33.6396 37.9669C39.0145 30.4335 38.778 19.9825 36.9633 14.2791C34.9482 7.94591 30.6171 3.45494 28.4356 1.49907C28.0618 1.16397 27.5924 0.996423 27.123 0.996369Z" fill="white"/>
<path d="M31.0853 21.1332C30.0701 22.1486 28.6689 22.777 27.1231 22.777C25.6257 22.7771 24.2178 22.194 23.159 21.1351C22.1002 20.0763 21.517 18.6684 21.5171 17.171C21.517 14.0799 24.0318 11.565 27.1231 11.565C28.6205 11.565 30.0283 12.1482 31.0871 13.207C32.146 14.2658 32.7291 15.6736 32.7291 17.1711C32.7291 18.7165 32.1002 20.1182 31.0853 21.1332ZM22.6383 17.1711L22.6388 17.1705L22.6383 17.1711Z" fill="white"/>
<path d="M20.6065 37.9668C20.9731 38.4805 21.569 38.7813 22.2001 38.7813L32.0462 38.7813C32.6773 38.7813 33.2732 38.4805 33.6398 37.9668C34.8093 36.3276 35.7129 34.5502 36.3927 32.7137L17.8537 32.7138C18.5334 34.5502 19.437 36.3277 20.6065 37.9668Z" fill="white"/>
<path d="M23.1717 48.677C23.3746 48.4742 23.5001 48.1938 23.5001 47.8842L23.5001 42.7073C23.5001 42.0881 22.9981 41.5861 22.3789 41.5861C21.7597 41.5861 21.2577 42.088 21.2577 42.7073L21.2577 47.8842C21.2577 48.5034 21.7597 49.0054 22.3789 49.0054C22.6886 49.0054 22.9688 48.8799 23.1717 48.677Z" fill="white"/>
<path d="M27.1231 41.5862C26.504 41.5862 26.002 42.0882 26.0019 42.7074L26.0019 52.6603C26.0019 53.2795 26.5039 53.7815 27.1231 53.7815C27.4327 53.7815 27.713 53.656 27.9159 53.4531C28.1188 53.2502 28.2443 52.9699 28.2443 52.6603L28.2443 42.7073C28.2443 42.0881 27.7423 41.5861 27.1231 41.5862Z" fill="white"/>
<path d="M31.8674 41.5862C31.2482 41.5862 30.7462 42.0882 30.7462 42.7074L30.7462 47.8842C30.7461 48.5034 31.2481 49.0054 31.8674 49.0054C32.177 49.0054 32.4573 48.8799 32.6602 48.6771C32.863 48.4742 32.9886 48.1938 32.9885 47.8843L32.9885 42.7073C32.9886 42.0882 32.4865 41.5861 31.8674 41.5862Z" fill="white"/>
<path d="M27.1231 53.7815C27.4328 53.7815 27.713 53.656 27.9159 53.4531C28.1189 53.2502 28.2443 52.9698 28.2443 52.6603L28.2443 42.7073C28.2443 42.0881 27.7423 41.5861 27.1231 41.5861L27.1231 53.7815Z" fill="white"/>
<path d="M27.1231 38.7813L32.0462 38.7813C32.6773 38.7813 33.2732 38.4805 33.6397 37.9669C34.8093 36.3276 35.7129 34.5503 36.3927 32.7137L27.1232 32.7137L27.1231 38.7813Z" fill="white"/>
<path d="M27.1232 22.7771C28.669 22.7771 30.0702 22.1487 31.0854 21.1333C32.1003 20.1182 32.7292 18.7164 32.7292 17.1711C32.7292 15.6736 32.1461 14.2658 31.0872 13.207C30.0284 12.1481 28.6205 11.5649 27.1231 11.565L27.1232 22.7771Z" fill="white"/>
<path d="M24.7459 14.7938C24.1368 15.4028 23.7596 16.2437 23.7596 17.1711C23.7596 18.0695 24.1094 18.9142 24.7447 19.5495C25.38 20.1849 26.2248 20.5346 27.1232 20.5346C28.9779 20.5346 30.4869 19.0257 30.4869 17.171C30.4868 16.2725 30.137 15.4278 29.5016 14.7925C28.8663 14.1572 28.0217 13.8074 27.1232 13.8074C26.1959 13.8074 25.355 14.1846 24.7459 14.7938Z" fill="white"/>
<path d="M27.1231 13.8075L27.1231 20.5347C28.9778 20.5347 30.4869 19.0258 30.4868 17.1711C30.4867 16.2726 30.1369 15.4279 29.5015 14.7926C28.8662 14.1573 28.0216 13.8074 27.1231 13.8075Z" fill="white"/>
</g>
<defs>
<clipPath id="clip0">
<rect width="38.2709" height="38.2709" fill="white" transform="translate(0.0615234 27.1847) rotate(-45)"/>
</clipPath>
</defs>
</svg>
