<svg width="887" height="782" viewBox="0 0 887 782" fill="none" xmlns="http://www.w3.org/2000/svg">
	<path d="M0 -11H886V-10.9993C886 85.3909 867.015 180.837 830.128 269.89C793.241 358.943 739.175 439.858 671.017 508.017C602.858 576.175 521.943 630.241 432.89 667.128C343.837 704.015 248.391 723 152.001 723H0V-11Z" fill="black" />
	<path d="M652.859 239.308C692.559 239.308 724.742 207.125 724.742 167.425C724.742 127.725 692.559 95.5418 652.859 95.5418C613.159 95.5418 580.976 127.725 580.976 167.425C580.976 207.125 613.159 239.308 652.859 239.308Z" fill="#033353" />
	<path d="M432.075 27.7663C435.478 27.7663 438.236 25.0077 438.236 21.6049C438.236 18.202 435.478 15.4435 432.075 15.4435C428.672 15.4435 425.914 18.202 425.914 21.6049C425.914 25.0077 428.672 27.7663 432.075 27.7663Z" fill="#0EFFE2" />
	<path d="M632.321 440.581C635.724 440.581 638.482 437.822 638.482 434.419C638.482 431.017 635.724 428.258 632.321 428.258C628.918 428.258 626.16 431.017 626.16 434.419C626.16 437.822 628.918 440.581 632.321 440.581Z" fill="#0EFFE2" />
	<path d="M652.859 27.7663C656.262 27.7663 659.02 25.0077 659.02 21.6049C659.02 18.202 656.262 15.4435 652.859 15.4435C649.456 15.4435 646.698 18.202 646.698 21.6049C646.698 25.0077 649.456 27.7663 652.859 27.7663Z" fill="#0EFFE2" />
	<path d="M493.689 194.124C497.092 194.124 499.851 191.366 499.851 187.963C499.851 184.56 497.092 181.802 493.689 181.802C490.286 181.802 487.528 184.56 487.528 187.963C487.528 191.366 490.286 194.124 493.689 194.124Z" fill="#0EFFE2" />
	<path d="M168.161 153.048C171.564 153.048 174.323 150.29 174.323 146.887C174.323 143.484 171.564 140.725 168.161 140.725C164.758 140.725 162 143.484 162 146.887C162 150.29 164.758 153.048 168.161 153.048Z" fill="#0EFFE2" />
	<path d="M284.201 612.073C399.898 612.073 493.689 518.282 493.689 402.585C493.689 286.888 399.898 193.097 284.201 193.097C168.504 193.097 74.7132 286.888 74.7132 402.585C74.7132 518.282 168.504 612.073 284.201 612.073Z" fill="#5CABB6" />
	<path opacity="0.2" d="M274.959 348.16C291.973 348.16 305.766 334.367 305.766 317.353C305.766 300.338 291.973 286.546 274.959 286.546C257.945 286.546 244.152 300.338 244.152 317.353C244.152 334.367 257.945 348.16 274.959 348.16Z" fill="black" />
	<path opacity="0.2" d="M274.959 577.159C304.45 577.159 328.358 553.251 328.358 523.76C328.358 494.268 304.45 470.361 274.959 470.361C245.468 470.361 221.56 494.268 221.56 523.76C221.56 553.251 245.468 577.159 274.959 577.159Z" fill="black" />
	<path opacity="0.2" d="M119.897 455.984C127.27 455.984 133.247 450.007 133.247 442.635C133.247 435.262 127.27 429.285 119.897 429.285C112.524 429.285 106.547 435.262 106.547 442.635C106.547 450.007 112.524 455.984 119.897 455.984Z" fill="black" />
	<path opacity="0.2" d="M646.606 137.443C650.525 137.443 653.703 134.266 653.703 130.346C653.703 126.427 650.525 123.25 646.606 123.25C642.687 123.25 639.509 126.427 639.509 130.346C639.509 134.266 642.687 137.443 646.606 137.443Z" fill="white" />
	<path opacity="0.2" d="M345.724 278.129C349.643 278.129 352.82 274.951 352.82 271.032C352.82 267.113 349.643 263.935 345.724 263.935C341.804 263.935 338.627 267.113 338.627 271.032C338.627 274.951 341.804 278.129 345.724 278.129Z" fill="black" />
	<path opacity="0.2" d="M265.717 421.07C270.821 421.07 274.959 416.932 274.959 411.828C274.959 406.723 270.821 402.585 265.717 402.585C260.613 402.585 256.475 406.723 256.475 411.828C256.475 416.932 260.613 421.07 265.717 421.07Z" fill="black" />
	<path opacity="0.2" d="M629.332 194.143C633.251 194.143 636.429 190.965 636.429 187.046C636.429 183.127 633.251 179.949 629.332 179.949C625.413 179.949 622.235 183.127 622.235 187.046C622.235 190.965 625.413 194.143 629.332 194.143Z" fill="white" />
	<path opacity="0.2" d="M438.328 368.716C442.248 368.716 445.425 365.539 445.425 361.619C445.425 357.7 442.248 354.523 438.328 354.523C434.409 354.523 431.232 357.7 431.232 361.619C431.232 365.539 434.409 368.716 438.328 368.716Z" fill="black" />
	<path opacity="0.2" d="M692.927 190.604C698.588 190.604 703.177 186.014 703.177 180.353C703.177 174.692 698.588 170.102 692.927 170.102C687.265 170.102 682.676 174.692 682.676 180.353C682.676 186.014 687.265 190.604 692.927 190.604Z" fill="white" />
	<path opacity="0.2" d="M379.721 444.248C385.383 444.248 389.972 439.659 389.972 433.998C389.972 428.336 385.383 423.747 379.721 423.747C374.06 423.747 369.471 428.336 369.471 433.998C369.471 439.659 374.06 444.248 379.721 444.248Z" fill="black" />
	<path opacity="0.2" d="M154.812 330.702C162.184 330.702 168.161 324.725 168.161 317.353C168.161 309.98 162.184 304.003 154.812 304.003C147.439 304.003 141.462 309.98 141.462 317.353C141.462 324.725 147.439 330.702 154.812 330.702Z" fill="black" />
	<path d="M329.589 523.338C307.559 523.308 285.548 522.036 263.66 519.528C197.829 512.052 137.115 494.386 92.7011 469.785C47.7441 444.883 24.7395 415.725 27.9241 387.681C30.1303 368.252 48.9094 350.862 85.3338 334.519C85.8307 334.297 86.3953 334.282 86.9038 334.476C87.4122 334.67 87.8228 335.058 88.0456 335.554C88.2683 336.051 88.285 336.615 88.0919 337.124C87.8987 337.633 87.5117 338.044 87.0156 338.268C52.0282 353.965 34.0343 370.28 32.0056 388.145C29.0202 414.43 51.2826 442.147 94.6917 466.192C138.644 490.538 198.816 508.029 264.124 515.446C329.432 522.863 391.993 519.309 440.285 505.44C487.981 491.741 515.892 469.722 518.876 443.437C520.896 425.655 511.101 406.8 490.551 388.911C490.141 388.553 489.889 388.047 489.851 387.503C489.813 386.96 489.993 386.424 490.351 386.013C490.709 385.602 491.215 385.35 491.758 385.312C492.302 385.275 492.838 385.454 493.249 385.812C514.864 404.629 525.137 424.716 522.958 443.9C519.773 471.943 490.816 495.201 441.42 509.387C409.258 518.624 370.871 523.338 329.589 523.338Z" fill="#0EFFE2" />
</svg>
