<svg width="105" height="105" viewBox="0 0 105 105" fill="none" xmlns="http://www.w3.org/2000/svg">
<g clip-path="url(#clip0)">
<path d="M0.941154 53.7388L0.941173 53.7388C1.65091 55.3433 3.10802 56.46 4.84183 56.7286C4.84183 56.7286 4.84184 56.7286 4.84185 56.7286M0.941154 53.7388L4.7653 57.2227L4.84185 56.7286M0.941154 53.7388C0.231223 52.1342 0.385022 50.3048 1.35278 48.841C1.35278 48.841 1.35279 48.8409 1.35279 48.8409L11.8435 32.9738L0.941154 53.7388ZM4.84185 56.7286L25.1115 59.8681L4.84185 56.7286ZM28.0979 58.9792L27.6766 58.7099L45.0172 31.5818C45.5432 30.7587 45.5584 29.709 45.0568 28.8708C44.5552 28.0334 43.6226 27.5519 42.6479 27.6259C42.6478 27.6259 42.6477 27.6259 42.6476 27.6259L17.6504 29.5568C17.6504 29.5568 17.6504 29.5568 17.6504 29.5568C15.2734 29.7406 13.1587 30.9848 11.8435 32.9738L28.0979 58.9792ZM28.0979 58.9792L27.6766 58.7099M28.0979 58.9792L27.6766 58.7099M27.6766 58.7099C27.1988 59.4575 26.3761 59.8985 25.5065 59.8987L27.6766 58.7099ZM25.5064 59.8987C25.3761 59.8987 25.2442 59.8886 25.1116 59.8681L25.5064 59.8987Z" fill="black" stroke="#00ADEF" stroke-width="0.999992"/>
<path d="M72.0263 93.1565L72.0263 93.1565L56.1589 103.647C56.1589 103.647 56.1589 103.647 56.1589 103.647C55.3033 104.213 54.3233 104.5 53.3378 104.5C52.6355 104.5 51.9293 104.354 51.2612 104.059C49.6564 103.349 48.5396 101.892 48.271 100.158L45.1317 79.8884C44.9756 78.8793 45.4299 77.8732 46.2901 77.3233L73.4181 59.9827C74.241 59.4567 75.2909 59.4414 76.129 59.9432C76.9672 60.4452 77.4494 61.378 77.374 62.3518L77.374 62.3519L75.443 87.3495L75.443 87.3496C75.2596 89.7268 74.0152 91.8417 72.0263 93.1565Z" fill="black" stroke="#00ADEF" stroke-width="0.999992"/>
<path d="M44.1424 85.5668L44.2248 86.06L44.1423 85.5668C42.5973 85.8253 41.0192 85.3074 39.9067 84.195L20.8051 65.0933C19.6927 63.9809 19.175 62.4028 19.4333 60.8577C23.587 36.0158 44.1847 16.3123 58.6766 8.81656C74.7577 0.498751 91.7682 0.186324 99.7569 0.621884C102.253 0.758099 104.242 2.74717 104.378 5.24294C104.814 13.2316 104.501 30.2423 96.1835 46.3233C88.6878 60.8154 68.9843 81.4131 44.1424 85.5668Z" fill="black" stroke="#00ADEF" stroke-width="0.999992"/>
<path d="M39.9067 84.195L30.7094 74.9977L103.288 2.41932C103.921 3.19695 104.32 4.17324 104.378 5.24315C104.814 13.2318 104.501 30.2425 96.1835 46.3235C88.6877 60.8154 68.9843 81.4131 44.1423 85.5668C42.5973 85.8251 41.0191 85.3074 39.9067 84.195Z" fill="black" stroke="#00ADEF" stroke-width="0.999992"/>
<path d="M71.9267 48.4469C67.9874 48.4471 64.0497 46.948 61.0509 43.9491C58.1458 41.0442 56.5458 37.1816 56.5458 33.0733C56.5458 28.965 58.1458 25.1024 61.0509 22.1975C67.0475 16.2006 76.8053 16.2004 82.8023 22.1975C85.7074 25.1024 87.3073 28.965 87.3073 33.0733C87.3073 37.1816 85.7074 41.0442 82.8023 43.9491C79.8043 46.9473 75.8648 48.4465 71.9267 48.4469ZM63.2259 24.3727H63.228H63.2259Z" fill="#00ADEF"/>
<path d="M18.94 60.7753C18.6545 62.4829 19.2271 64.2226 20.4514 65.4469L39.5531 84.5486C40.7774 85.7729 42.517 86.3454 44.2247 86.06C49.6738 85.1488 54.875 83.4536 59.7566 81.2095L23.7905 45.2436C21.5463 50.125 19.8512 55.3264 18.94 60.7753Z" fill="#00ADEF"/>
<path d="M3.13857 86.5297C3.92566 86.5297 4.71316 86.2293 5.31363 85.6286L15.3569 75.5853C16.5583 74.3842 16.5583 72.4363 15.3569 71.235C14.1558 70.0336 12.2081 70.0336 11.0066 71.235L0.963511 81.2783C-0.237837 82.4794 -0.237837 84.4273 0.963511 85.6286C1.56418 86.2295 2.35127 86.5297 3.13857 86.5297Z" fill="#00ADEF"/>
<path d="M24.561 80.4392C23.3598 79.2381 21.412 79.2381 20.2107 80.4392L0.901743 99.7481C-0.299604 100.949 -0.299604 102.897 0.901743 104.098C1.50242 104.699 2.28971 104.999 3.07701 104.999C3.8643 104.999 4.6516 104.699 5.25207 104.098L24.561 84.7893C25.7623 83.5882 25.7623 81.6404 24.561 80.4392Z" fill="#00ADEF"/>
<path d="M33.765 89.6433C32.5639 88.4421 30.616 88.4421 29.4147 89.6433L19.3716 99.6863C18.1702 100.887 18.1702 102.835 19.3716 104.037C19.9723 104.637 20.7596 104.938 21.5466 104.938C22.3337 104.938 23.1212 104.637 23.7217 104.037L33.765 93.9934C34.9663 92.7922 34.9663 90.8444 33.765 89.6433Z" fill="#00ADEF"/>
<path d="M0.901733 104.098C1.50241 104.699 2.2897 104.999 3.077 104.999C3.86429 104.999 4.65159 104.699 5.25206 104.098L24.561 84.7893C25.7623 83.5882 25.7623 81.6404 24.561 80.439L0.901733 104.098Z" fill="#00ADEF"/>
<path d="M30.0023 74.9977L39.5531 84.5486C40.7774 85.7729 42.5171 86.3454 44.2248 86.06C49.6739 85.1488 54.875 83.4536 59.7567 81.2095L41.7737 63.2265L30.0023 74.9977Z" fill="#00ADEF"/>
<path d="M61.0509 43.9493C64.0498 46.9482 67.9875 48.4475 71.9268 48.4471C75.8649 48.4467 79.8045 46.9473 82.8025 43.9493C85.7077 41.0442 87.3075 37.1817 87.3075 33.0734C87.3075 28.9651 85.7077 25.1024 82.8025 22.1975L61.0509 43.9493Z" fill="#00ADEF"/>
<path d="M71.9266 23.8494C69.5635 23.8494 67.2002 24.7489 65.4013 26.548C63.6583 28.291 62.6981 30.6083 62.6981 33.0734C62.6981 35.5384 63.6583 37.8558 65.4013 39.5988C68.9994 43.1969 74.8543 43.1971 78.4524 39.5988C80.1954 37.8556 81.1554 35.5382 81.1554 33.0732C81.1554 30.6081 80.1954 28.2908 78.4524 26.5478C76.6533 24.7489 74.2902 23.8494 71.9266 23.8494Z" fill="#00ADEF"/>
<path d="M78.4522 26.548L65.4012 39.5989C68.9993 43.197 74.8543 43.1972 78.4522 39.5989C80.1952 37.8558 81.1551 35.5384 81.1551 33.0734C81.1551 30.6083 80.1954 28.2909 78.4522 26.548Z" fill="#00ADEF"/>
</g>
<defs>
<clipPath id="clip0">
<rect width="105" height="105" fill="white"/>
</clipPath>
</defs>
</svg>
